<?xml version="1.0" encoding="UTF-8" standalone="no"?>
<!-- Created with Inkscape (http://www.inkscape.org/) -->

<svg
   xmlns:dc="http://purl.org/dc/elements/1.1/"
   xmlns:cc="http://creativecommons.org/ns#"
   xmlns:rdf="http://www.w3.org/1999/02/22-rdf-syntax-ns#"
   xmlns:svg="http://www.w3.org/2000/svg"
   xmlns="http://www.w3.org/2000/svg"
   xmlns:xlink="http://www.w3.org/1999/xlink"
   xmlns:sodipodi="http://sodipodi.sourceforge.net/DTD/sodipodi-0.dtd"
   xmlns:inkscape="http://www.inkscape.org/namespaces/inkscape"
   width="138"
   height="61.296238"
   id="svg3813"
   version="1.1"
   inkscape:version="0.48.4 r9939"
   sodipodi:docname="ATLAS.svg">
  <defs
     id="defs3815" />
  <sodipodi:namedview
     id="base"
     pagecolor="#ffffff"
     bordercolor="#666666"
     borderopacity="1.0"
     inkscape:pageopacity="0.0"
     inkscape:pageshadow="2"
     inkscape:zoom="2.8"
     inkscape:cx="67.503832"
     inkscape:cy="24.410354"
     inkscape:document-units="px"
     inkscape:current-layer="a3891"
     showgrid="false"
     fit-margin-top="0"
     fit-margin-left="0"
     fit-margin-right="0"
     fit-margin-bottom="0"
     inkscape:window-width="1535"
     inkscape:window-height="876"
     inkscape:window-x="65"
     inkscape:window-y="24"
     inkscape:window-maximized="1" />
  <metadata
     id="metadata3818">
    <rdf:RDF>
      <cc:Work
         rdf:about="">
        <dc:format>image/svg+xml</dc:format>
        <dc:type
           rdf:resource="http://purl.org/dc/dcmitype/StillImage" />
        <dc:title />
      </cc:Work>
    </rdf:RDF>
  </metadata>
  <g
     inkscape:label="Layer 1"
     inkscape:groupmode="layer"
     id="layer1"
     transform="translate(-115.36751,-477.6485)">
    <a
       id="a3891"
       xlink:href="https://atlas.cern/"
       target="https://atlas.cern/"
       transform="translate(-28.571429,25.714286)">
      <g
         id="g3008"
         transform="matrix(0.22264841,0,0,0.22264841,112.60975,398.61332)">
        <g
           id="g3005">
          <path
             inkscape:connector-curvature="0"
             style="fill:#ffffff;fill-opacity:1;fill-rule:nonzero;stroke:none"
             id="path14"
             d="m 140.71149,514.78982 619.8113,0 0,-275.30508 -619.8113,0 0,275.30508 z" />
        </g>
        <g
           id="g3936">
          <path
             inkscape:connector-curvature="0"
             style="fill:#000606;fill-opacity:1;fill-rule:nonzero;stroke:none"
             id="path16"
             d="m 691.54121,494.69463 -7.92375,0 -19.45,-31.7085 -0.2125,0 0.1325,1.76862 c 0.25125,3.37738 0.38125,6.46138 0.38125,9.25238 l 0,20.6875 -5.8725,0 0,-39.791 7.84375,0 19.3975,31.53862 0.16125,0 c -0.0325,-0.41025 -0.105,-1.93125 -0.2175,-4.55762 -0.11,-2.61475 -0.1625,-4.66213 -0.1625,-6.13625 l 0,-20.84475 5.9225,0 0,39.791" />
          <path
             inkscape:connector-curvature="0"
             style="fill:#000606;fill-opacity:1;fill-rule:nonzero;stroke:none"
             id="path18"
             d="m 726.10246,494.69463 -6.46875,0 0,-34.2085 -11.63,0 0,-5.5825 29.7225,0 0,5.5825 -11.62375,0 0,34.2085" />
          <path
             inkscape:connector-curvature="0"
             style="fill:#000606;fill-opacity:1;fill-rule:nonzero;stroke:none"
             id="path20"
             d="m 736.99246,405.71476 c 0.2675,9.70749 -3.02375,17.57749 -9.8725,23.6025 -6.84375,6.0325 -16.515,9.44125 -28.995,10.22125 -11.49875,0.72875 -21.725,-0.79125 -30.68625,-4.54625 l -0.57875,-21.17625 c 7.355,2.77875 13.57375,4.66625 18.64375,5.67625 5.0725,1.0075 9.705,1.375 13.87625,1.11375 5.01125,-0.31625 8.8325,-1.515 11.4575,-3.59125 2.61875,-2.0825 3.88375,-5.01 3.78375,-8.78375 -0.06,-2.10625 -0.6975,-3.9475 -1.92125,-5.5125 -1.22875,-1.57 -3,-3.0425 -5.3275,-4.4175 -2.32875,-1.37626 -7.0475,-3.51125 -14.17125,-6.4 -6.66375,-2.67875 -11.68875,-5.33125 -15.055,-7.96625 -3.3675,-2.6375 -6.08625,-5.77875 -8.155,-9.4275 -2.07,-3.65 -3.1775,-8.00125 -3.3125,-13.055 -0.25875,-9.50376 2.76625,-17.1875 9.07625,-23.03125 6.315,-5.85375 15.1675,-9.1325 26.57,-9.85125 5.6,-0.35125 10.9625,-0.03 16.07875,0.9725 5.12625,1.00749 10.49375,2.5375 16.11625,4.5875 l -6.88625,18.185 c -5.81625,-1.9925 -10.61375,-3.335 -14.3925,-4.03125 -3.78375,-0.6925 -7.4975,-0.9275 -11.13375,-0.6975 -4.32625,0.2725 -7.61375,1.48625 -9.86875,3.64125 -2.255,2.15625 -3.33375,4.85125 -3.2475,8.08625 0.0575,2.0125 0.56875,3.73625 1.54375,5.17 0.9725,1.43625 2.5,2.7875 4.58125,4.0575 2.06875,1.26875 6.975,3.47875 14.685,6.62625 10.2025,4.16875 17.24125,8.55375 21.1075,13.14375 3.86125,4.59625 5.89375,10.3975 6.08375,17.40375" />
          <path
             inkscape:connector-curvature="0"
             style="fill:#000606;fill-opacity:1;fill-rule:nonzero;stroke:none"
             id="path22"
             d="m 205.59846,354.57475 c -19.15488,5.76 -29.70663,4.625 -31.66263,0.8375 l -3.37212,1.74125 c 1.80225,3.4875 6.32375,5.2325 13.08062,5.2325 6.2705,0 14.47026,-1.51 24.2065,-4.5225 -0.76412,-1.08375 -1.50674,-2.18375 -2.25237,-3.28875" />
          <path
             inkscape:connector-curvature="0"
             style="fill:#000606;fill-opacity:1;fill-rule:nonzero;stroke:none"
             id="path24"
             d="m 231.20746,296.996 c 1.2075,-0.55875 2.40875,-1.09875 3.60375,-1.62625 -17.1075,-20.04001 -33.51063,-28.93126 -42.85338,-23.21376 l 1.977,3.23625 c 7.291,-4.46625 22.17638,4.20002 37.27263,21.60376" />
          <path
             inkscape:connector-curvature="0"
             style="fill:#000606;fill-opacity:1;fill-rule:nonzero;stroke:none"
             id="path26"
             d="m 284.34121,350.3035 c -3.42,7.89375 -7.9775,14.87125 -13.2975,20.77875 -0.18375,-2.59375 -0.5625,-5.3775 -1.1675,-8.3625 -1.80625,-8.9075 -5.36375,-18.90125 -10.29875,-29.13625 12.69125,-7.99125 23.75375,-16.74625 30.1775,-24.60375 2.26875,13.4375 0.42875,27.835 -5.41375,41.32375 z m 10.46875,-57.3975 -3.37125,1.74125 c 0.61875,1.19625 0.5575,2.77375 -0.1125,4.64251 -5.05,-16.08751 -15.5925,-28.31252 -29.79375,-34.46502 l -1.51,3.4825 c 13.40125,5.80375 23.32375,17.49001 27.94,32.90251 0.28125,0.935 0.5375,1.87875 0.77375,2.8275 -4.9675,7.11625 -15.67625,16.5825 -30.84,26.1525 -2.13875,-4.1975 -4.49375,-8.41875 -7.05875,-12.61 -2.3,-3.7525 -4.72375,-7.4125 -7.22,-10.90375 -1.1625,0.49375 -2.3475,1.00375 -3.55125,1.54 2.60125,3.61625 5.1375,7.4325 7.53375,11.34625 2.57125,4.2025 4.92625,8.43125 7.05625,12.63 -4.395,2.6675 -9.11875,5.32875 -14.1625,7.9375 -7.16,3.70125 -14.33,6.9625 -21.33375,9.71625 0.76,1.0875 1.515,2.13875 2.275,3.16875 6.8425,-2.725 13.8275,-5.91 20.8025,-9.51875 4.78,-2.47125 9.5225,-5.13125 14.09625,-7.905 4.70875,9.82 8.10125,19.3775 9.82375,27.885 0.86375,4.26 1.25875,8.07875 1.22,11.3925 -16.82375,16.13375 -39.78625,22.31 -59.48463,13.77625 l -1.50725,3.48125 c 6.49313,2.81125 13.30938,4.1475 20.16313,4.1475 14.13625,-0.002 28.40625,-5.69125 40.235,-15.76625 -0.74625,3.285 -2.17625,5.66 -4.26375,6.9375 l 1.975,3.23875 c 4.0125,-2.45125 6.2425,-7.33375 6.61875,-14.16875 6.78125,-6.77125 12.545,-15.0975 16.70625,-24.705 6.6575,-15.36 8.3625,-31.875 4.9725,-47.03625 2.79875,-4.52375 3.705,-8.605 2.0175,-11.8675" />
          <path
             inkscape:connector-curvature="0"
             style="fill:#000606;fill-opacity:1;fill-rule:nonzero;stroke:none"
             id="path28"
             d="m 260.60246,386.991 c -5.0725,1.32625 -13.20625,-2.175 -22.4075,-9.87875 0.25625,1.71 0.11,3.46875 -0.58625,5.12625 -0.235,0.5675 -0.48875,1.1025 -0.75,1.6175 4.11375,3.17875 8.10625,5.6025 11.865,7.195 -4.74625,1.1175 -9.685,1.72625 -14.76625,1.72625 -16.1775,0 -30.97137,-6.00125 -42.30537,-15.8775 -7.39301,-8.21 -12.12788,-19 -13.76113,-30.875 3.40275,-4.65125 9.394,-10.4875 17.83875,-16.82 2.6465,5.61126 5.711,11.29375 9.15088,16.91125 5.22912,8.54625 10.78062,16.16 16.38312,22.65625 1.67125,-1.18125 3.68375,-1.86 5.87625,-1.86 0.1925,0 0.3825,0.0213 0.56875,0.0312 -5.94375,-6.54875 -12.01375,-14.57 -17.7455,-23.93375 -3.53612,-5.77875 -6.66112,-11.61625 -9.317,-17.35 6.92588,-4.8125 15.175,-9.825 24.7225,-14.7625 15.9325,-8.2425 31.5075,-14.21749 43.8575,-16.83 12.56375,-2.65749 18.705,-1.08999 20.04875,1.1175 5.81625,9.68376 9.17,21.0075 9.17,33.10375 0,26.06 -15.54625,48.54125 -37.8425,58.7025 z m -85.64663,-35.72625 c 0.47663,2.28125 1.07325,4.51125 1.77,6.6925 -0.771,-1.48125 -1.5005,-2.98625 -2.15625,-4.53125 -0.007,-0.64 0.11725,-1.35875 0.38625,-2.16125 z m 9.91988,-64.74 c -0.19088,2.66875 -0.0923,5.6275 0.2745,8.8275 -1.86913,3.09375 -3.5665,6.3575 -5.05325,9.79 -5.27388,12.1775 -7.2935,24.82375 -6.44925,36.68875 -0.75675,1.00875 -1.43113,2.00125 -2.02738,2.97625 -1.39987,-5.275 -2.15375,-10.81 -2.15375,-16.51875 0,-15.92125 5.8115,-30.5025 15.40913,-41.76375 z m 1.22512,14.8725 c 1.40088,6.92875 3.833,14.4725 7.13913,22.2525 -6.31925,4.64875 -11.809,9.36125 -15.98625,13.885 -0.12838,-10.085 1.89162,-20.655 6.32325,-30.885 0.78075,-1.8025 1.63037,-3.5475 2.52387,-5.2525 z m 8.15188,-23.87 c 6.89938,-5.40751 14.91213,-9.45626 23.646,-11.70376 -10.14937,4.49625 -19.55425,11.79876 -27.11187,21.37252 0.276,-4.44126 1.44925,-7.75626 3.46587,-9.66876 z m 89.05475,9.31 c -4.135,-0.3375 -9.25875,0.12 -15.32,1.40125 -12.8525,2.7175 -28.95875,8.88375 -45.35625,17.3625 -8.5885,4.44125 -16.943,9.39875 -24.4175,14.51875 -2.98437,-7.20499 -5.1675,-14.15875 -6.398,-20.52125 -0.42237,-2.1825 -0.71975,-4.24375 -0.89887,-6.17625 13.018,-18.87376 33.18812,-29.81751 52.71062,-28.89501 15.8425,2.39251 29.8075,10.57375 39.68,22.31002 z m -49.35,-29.00126 c -38.8425,0 -70.44938,31.60626 -70.44938,70.45251 0,38.84375 31.60688,70.4525 70.44938,70.4525 38.8475,0 70.4525,-31.60875 70.4525,-70.4525 0,-38.84625 -31.605,-70.45251 -70.4525,-70.45251" />
          <path
             inkscape:connector-curvature="0"
             style="fill:#000606;fill-opacity:1;fill-rule:nonzero;stroke:none"
             id="path30"
             d="m 318.49621,494.69463 -22.37125,0 0,-39.78863 22.37125,0 0,5.49613 -15.90625,0 0,10.8325 14.90625,0 0,5.44237 -14.90625,0 0,12.48788 15.90625,0 0,5.52975" />
          <path
             inkscape:connector-curvature="0"
             style="fill:#000606;fill-opacity:1;fill-rule:nonzero;stroke:none"
             id="path32"
             d="m 368.99871,494.69463 -7.4375,0 -9.9,-16.27638 -9.97625,16.27638 -6.9275,0 13.12,-20.625 -12.28,-19.16363 7.19375,0 9.1425,15.04988 9.14125,-15.04988 6.9825,0 -12.36875,19.26863 13.31,20.52" />
          <path
             inkscape:connector-curvature="0"
             style="fill:#000606;fill-opacity:1;fill-rule:nonzero;stroke:none"
             id="path34"
             d="m 392.59871,474.33575 3.43625,0 c 3.32125,0 5.755,-0.57862 7.30625,-1.74124 1.5525,-1.15475 2.3225,-2.97112 2.3225,-5.44088 0,-2.28663 -0.69,-3.99025 -2.08125,-5.11863 -1.39125,-1.124 -3.55,-1.6875 -6.4925,-1.6875 l -4.49125,0 0,13.98825 z m 19.72,-7.3985 c 0,4.15388 -1.3525,7.3335 -4.05375,9.54888 -2.71125,2.21237 -6.5575,3.31987 -11.5575,3.31987 l -4.10875,0 0,14.88863 -6.46125,0 0,-39.78863 11.385,-0.002 c 4.94375,0 8.64375,1.0185 11.10625,3.05462 2.46125,2.02888 3.69,5.024 3.69,8.979" />
          <path
             inkscape:connector-curvature="0"
             style="fill:#000606;fill-opacity:1;fill-rule:nonzero;stroke:none"
             id="path36"
             d="m 454.26371,494.69463 -22.3675,0 0,-39.791 22.3675,0 0,5.4985 -15.9,0 0,10.8325 14.89875,0 0,5.44237 -14.89875,0 0,12.48788 15.9,0 0,5.52975" />
          <path
             inkscape:connector-curvature="0"
             style="fill:#000606;fill-opacity:1;fill-rule:nonzero;stroke:none"
             id="path38"
             d="m 481.40871,473.411 4.49125,0 c 3.01125,0 5.19,-0.55862 6.545,-1.6875 1.35,-1.12362 2.02875,-2.795 2.02875,-5.00887 0,-2.24613 -0.7325,-3.86225 -2.19125,-4.84125 -1.4625,-0.981 -3.66,-1.47125 -6.59875,-1.47125 l -4.275,0 0,13.00887 z m 0,5.391 0,15.89263 -6.465,0 0,-39.791 11.17,0 c 5.105,0 8.87875,0.96625 11.335,2.88626 2.44875,1.92725 3.67625,4.82999 3.67625,8.71087 0,4.95024 -2.55875,8.48149 -7.68125,10.58163 l 11.16625,17.61225 -7.35125,0 -9.4675,-15.89263 -6.3825,0" />
          <path
             inkscape:connector-curvature="0"
             style="fill:#000606;fill-opacity:1;fill-rule:nonzero;stroke:none"
             id="path40"
             d="m 523.16871,494.69463 6.4624,0 0,-39.791 -6.4624,0 0,39.791 z" />
          <path
             inkscape:connector-curvature="0"
             style="fill:#000606;fill-opacity:1;fill-rule:nonzero;stroke:none"
             id="path42"
             d="m 569.31621,494.69463 -11.46875,-33.2275 -0.2125,0 c 0.3025,4.93112 0.4575,9.56 0.4575,13.875 l 0,19.3525 -5.87125,0 0,-39.791 9.11625,0 10.98,31.64988 0.16125,0 11.31,-31.64988 9.145,0 0,39.791 -6.22375,0 0,-19.67725 c 0,-1.98138 0.0463,-4.55275 0.14625,-7.73 0.1,-3.17138 0.18625,-5.09375 0.2625,-5.769 l -0.2175,0 -11.87375,33.17625 -5.71125,0" />
          <path
             inkscape:connector-curvature="0"
             style="fill:#000606;fill-opacity:1;fill-rule:nonzero;stroke:none"
             id="path44"
             d="m 637.91996,494.69463 -22.37375,0 0,-39.791 22.37375,0 0,5.4985 -15.905,0 0,10.8325 14.9025,0 0,5.44237 -14.9025,0 0,12.48788 15.905,0 0,5.52975" />
          <path
             inkscape:connector-curvature="0"
             style="fill:#000606;fill-opacity:1;fill-rule:nonzero;stroke:none"
             id="path46"
             d="m 362.36371,393.176 c -7.21875,-23.2325 -11.285,-36.37 -12.19625,-39.4175 -0.90875,-3.0475 -1.5575,-5.4525 -1.95125,-7.22 -1.61625,6.28625 -6.26375,21.83625 -13.92375,46.6375 l 28.07125,0 z m 13.26125,44.8 -7.8075,-25.64125 -39.27,0 -7.81375,25.64125 -24.60875,0 38.02125,-108.165 27.9225,0 38.16875,108.165 -24.6125,0" />
          <path
             inkscape:connector-curvature="0"
             style="fill:#000606;fill-opacity:1;fill-rule:nonzero;stroke:none"
             id="path48"
             d="m 437.99496,437.976 -22.8425,0 0,-88.71125 -29.24625,0 0,-19.01124 81.34,0 0,19.01124 -29.25125,0 0,88.71125" />
          <path
             inkscape:connector-curvature="0"
             style="fill:#000606;fill-opacity:1;fill-rule:nonzero;stroke:none"
             id="path50"
             d="m 481.21496,437.976 0,-107.72249 22.84125,0 0,88.85624 43.69,0 0,18.86625 -66.53125,0" />
          <path
             inkscape:connector-curvature="0"
             style="fill:#000606;fill-opacity:1;fill-rule:nonzero;stroke:none"
             id="path52"
             d="m 619.74371,393.176 c -7.21625,-23.2325 -11.2825,-36.37 -12.19,-39.4175 -0.9125,-3.0475 -1.56,-5.4525 -1.95625,-7.22125 -1.62,6.2875 -6.2575,21.8375 -13.925,46.63875 l 28.07125,0 z m 13.2675,44.8 -7.80875,-25.64125 -39.2775,0 -7.805,25.64125 -24.6125,0 38.01625,-108.165 27.9325,0 38.16125,108.165 -24.60625,0" />
          <path
             inkscape:connector-curvature="0"
             style="fill:#000606;fill-opacity:1;fill-rule:nonzero;stroke:none"
             id="path54"
             d="m 269.81246,388.37225 c -0.3925,0.37375 -1.53625,1.89375 -2.42125,1.95875 -0.88875,0.07 -5.05875,0.84875 -4.9975,2.38376 -3.70625,1.69125 -10.6275,3.3625 -12.83625,4.3 -3.88625,-1.59501 -6.77875,-2.5375 -11.61125,-2.80375 -4.15375,-2.34875 -6.70125,-3.11375 -8.8475,-3.43375 l -1.36375,-0.39125 0.74125,-2.455 c 3.035,-0.73125 5.4925,-3.74375 6.225,-6.90875 1.0925,-4.7675 -1.27125,-8.75375 -4.61125,-10.295 -4.69875,-2.165 -10.08625,1.2175 -10.34125,7.13625 -0.13375,3.18125 0.74125,4.69625 1.0375,5.96125 0.0325,0.125 0.0888,0.24 0.13,0.3625 -0.28375,1.00625 -0.67125,2.07375 -1.08125,3.03625 -2.7625,-1.01875 -6.99388,-1.5 -8.88988,-1.77125 -7.58837,-4.4725 -15.38962,-4.7 -19.0435,-5.935 -2.52387,-3.11125 -8.79237,-5.67125 -14.15862,-10.535 -0.332,-0.3 0.69037,-3.07625 -2.09175,-4.9925 -1.97075,-1.915 -2.3175,-2.895 -3.59625,-5.69125 -1.07425,-1.09375 -2.334,-1.955 -3.603,-1.50875 0.13712,0.95625 0.97462,2.17 1.27775,4.87875 0.42637,3.83 2.379,6.305 4.29837,9.325 3.57275,6.92125 7.21688,11.19 12.73288,15.445 7.47462,5.3775 11.91462,7.13875 18.96,9.58125 0.0771,4.36874 0.95362,9.605 1.9175,14.08125 0.55275,2.57125 1.34762,4.43 1.28762,6.2325 -0.13575,3.9275 -0.39312,3.36375 -2.30125,7.3175 -4.97762,10.29875 -3.66025,25.85863 -3.38825,33.16225 0.0118,0.334 0.021,0.65138 0.0274,0.95413 -0.0366,0.70362 -0.35163,1.46237 -1.88913,1.62112 l 0.002,0 c -5.1035,0.29488 -11.751,3.60888 -17.3925,10.3325 -4.69588,5.58888 -9.09288,7.25 -13.66663,6.706 -3.98962,-0.47987 -5.52387,1.689 -3.89837,4.84775 1.74212,3.39013 1.21287,4.5375 0.812,7.7685 -0.27588,2.17038 -0.90325,3.61275 0.87937,5.77888 2.18413,2.65137 8.32963,1.39887 7.045,0.71875 -3.7915,-1.98488 -0.69287,-6.74763 0.5415,-9.38875 10.41063,-9.57463 27.86375,-15.06638 30.1005,-16.25638 3.33838,-1.62587 7.5855,-1.892 8.48488,-5.77975 0.0245,-0.0976 3.51575,-13.44875 5.73825,-21.5225 0.36625,-1.34375 1.37375,-2.8875 2.7925,-2.19625 0.43375,0.21125 0.8875,0.5275 1.5225,1.0525 3.86,3.21125 9.08875,5.93138 12.275,7.90363 0.9325,0.579 0.67875,1.92862 0.05,2.499 -5.055,4.60737 -6.24,11.4775 -5.935,15.561 0.3325,4.5025 -1.11,15.17237 -3.27375,19.64012 -2.31625,4.76125 -1.76375,6.90475 3.385,6.2275 5.73125,-0.75237 7.08125,1.08988 10.4325,1.6275 3.35,0.541 7.155,-2.61137 5.52625,-3.2475 -1.5,-0.58112 -8.52125,-1.41125 -11.30625,-5.87262 0.7225,-8.30613 14.88,-34.50638 15.535,-38.43263 -1.415,-8.97975 -16.505,-19.05225 -18.675,-20.98975 -0.27125,-1.35875 -0.54375,-4.33625 -0.43,-7.46 0.64375,-3 4.11,-11.8975 4.0825,-14.08375 4.39875,0.495 12.46625,1.175 15.7175,-0.5425 4.9275,-1.215 11.24375,-6.275 12.84,-8.25375 1.29875,-1.18625 3.63125,-1.26 4.67875,-2.20875 1.36375,-1.22625 1.9825,-2.035 3.645,-5.45 1.17125,-2.41375 -1.7475,-1.25625 -3.07125,0.005" />
        </g>
      </g>
    </a>
  </g>
</svg>
