<?xml version="1.0" encoding="UTF-8" standalone="no"?>
<!-- Created with Inkscape (http://www.inkscape.org/) -->

<svg
   xmlns:dc="http://purl.org/dc/elements/1.1/"
   xmlns:cc="http://creativecommons.org/ns#"
   xmlns:rdf="http://www.w3.org/1999/02/22-rdf-syntax-ns#"
   xmlns:svg="http://www.w3.org/2000/svg"
   xmlns="http://www.w3.org/2000/svg"
   xmlns:xlink="http://www.w3.org/1999/xlink"
   xmlns:sodipodi="http://sodipodi.sourceforge.net/DTD/sodipodi-0.dtd"
   xmlns:inkscape="http://www.inkscape.org/namespaces/inkscape"
   version="1.1"
   width="79"
   height="46"
   id="svg2"
   xml:space="preserve"
   inkscape:version="0.48.4 r9939"
   sodipodi:docname="belle2.svg"><sodipodi:namedview
     pagecolor="#ffffff"
     bordercolor="#666666"
     borderopacity="1"
     objecttolerance="10"
     gridtolerance="10"
     guidetolerance="10"
     inkscape:pageopacity="0"
     inkscape:pageshadow="2"
     inkscape:window-width="1535"
     inkscape:window-height="876"
     id="namedview15"
     showgrid="false"
     fit-margin-top="0"
     fit-margin-left="0"
     fit-margin-right="0"
     fit-margin-bottom="0"
     inkscape:zoom="5.8092308"
     inkscape:cx="39.314299"
     inkscape:cy="35.485536"
     inkscape:window-x="65"
     inkscape:window-y="24"
     inkscape:window-maximized="1"
     inkscape:current-layer="g12"
     borderlayer="true" /><metadata
     id="metadata8"><rdf:RDF><cc:Work
         rdf:about=""><dc:format>image/svg+xml</dc:format><dc:type
           rdf:resource="http://purl.org/dc/dcmitype/StillImage" /><dc:title /></cc:Work></rdf:RDF></metadata><defs
     id="defs6" /><g
     transform="matrix(1.25,0,0,-1.25,47.55614,47.870882)"
     id="g10"><g
       transform="scale(0.1,0.1)"
       id="g12"><path
         d="m -297.9279,17.021679 451.07434,0 0,366.497941 -451.07434,0 0,-366.497941 z"
         id="path14"
         style="opacity:0;fill:#ffffff;fill-opacity:1;fill-rule:nonzero;stroke:none"
         inkscape:connector-curvature="0" /><path
         d="m -296.51829,18.431288 448.25513,0 0,363.678722 -448.25513,0 0,-363.678722 z"
         id="path16"
         style="opacity:0;fill:#ffffff;fill-opacity:1;fill-rule:nonzero;stroke:none"
         inkscape:connector-curvature="0" /><path
         d="m -37.464987,334.10733 0,0 0,0 c 47.624958,-4.14559 79.869781,-16.04132 79.869781,-29.46076 0,-16.26966 -46.9653121,-29.7681 -107.524849,-30.9028 l 27.655068,60.36356 -27.655068,1.44204 0,0 0,0 0,0 m 0,0 0,0 c -2.683924,0.0491 -5.373472,0.0748 -8.062953,0.0748 -63.836912,0 -115.587792,-13.86916 -115.587792,-30.97753 0,-4.70526 4.00084,-9.3499 11.69829,-13.58018 l -34.64897,-4.72078 c -7.18577,5.81468 -10.87993,12.02962 -10.87993,18.30096 0,26.98131 66.89718,48.85417 149.418402,48.85417 82.5212369,0 149.418364,-21.87286 149.418364,-48.85417 0,-26.9813 -66.8971271,-48.85417 -149.418364,-48.85417 -9.569856,0 -19.117143,0.30024 -28.510752,0.89794"
         id="path18"
         style="fill:#000000;fill-opacity:1;fill-rule:evenodd;stroke:none"
         inkscape:connector-curvature="0" /><path
         d="m -124.57592,145.87475 0,0 0,0 0,0 0,0 c 8.6057,-0.33479 17.30717,-0.50337 26.019951,-0.50337 91.8641019,0 166.333685,18.29757 166.333685,40.86818 0,21.46406 -67.58363814,39.27166 -154.731196,40.76865 l -37.62244,-81.13346 -28.1329,1.72336 0,0 m 0,0 0,0 c -67.124,5.67863 -112.18079,21.19894 -112.18079,38.64145 0,11.33326 19.1574,22.15901 52.8944,29.88929 l -39.75421,11.99157 c -32.10776,-11.61519 -49.78997,-26.48935 -49.78997,-41.88086 0,-35.25615 90.87893,-63.83758 202.983421,-63.83758 112.104642,0 202.983459,28.58143 202.983459,63.83758 0,35.25567 -90.878817,63.83828 -202.983459,63.83828 -1.771821,0 -3.543721,-0.008 -5.314181,-0.0228"
         id="path20"
         style="fill:#000000;fill-opacity:1;fill-rule:evenodd;stroke:none"
         inkscape:connector-curvature="0" /><g
         transform="matrix(1.4096073,0,0,1.4096073,-324.09315,14.267442)"
         id="g22"><text
           transform="matrix(1,0,0,-1,83.575,22)"
           id="text24"
           style="fill:#000000"><tspan
             x="0 33.349998 61.150002 72.25 83.349998"
             y="0"
             id="tspan26"
             style="font-size:50px;font-style:oblique;font-variant:normal;writing-mode:lr-tb;fill:#000000;fill-opacity:1;fill-rule:nonzero;stroke:none;font-family:Helvetica;-inkscape-font-specification:Helvetica-Oblique">Belle</tspan></text>
</g><path
         d="m -15.142422,50.008221 12.8499509,0 8.683156,41.216643 -12.849951,0 -8.6831559,-41.216643 m -16.42193,-5.152276 43.345417,0 1.085364,5.152276 -8.3166681,0 8.6832211,41.216643 8.316668,0 1.085363,5.152202 -43.345417,0 -1.085364,-5.152202 8.316669,0 -8.683221,-41.216643 -8.316668,0"
         id="path28"
         style="fill:#000000;fill-opacity:1;fill-rule:evenodd;stroke:none"
         inkscape:connector-curvature="0" /><a
         id="a3763"
         target="https://www.belle2.org/"
         xlink:href="https://www.belle2.org/"
         style="opacity:0"
         transform="matrix(0.14096073,0,0,0.14096073,-274.51688,-0.88086023)"><rect
           transform="scale(1,-1)"
           y="-3076.8582"
           x="-1029.6285"
           height="3479.7146"
           width="5187.3418"
           id="rect3761"
           style="opacity:0.97119344;fill:#ffffff;fill-opacity:1;stroke:#ffffff;stroke-width:3.40147066;stroke-miterlimit:4;stroke-opacity:1;stroke-dasharray:none" /></a></g></g></svg>