<?xml version="1.0" encoding="UTF-8" standalone="no"?>
<!-- Generator: Adobe Illustrator 12.0.1, SVG Export Plug-In . SVG Version: 6.00 Build 51448)  -->

<svg
   xmlns:dc="http://purl.org/dc/elements/1.1/"
   xmlns:cc="http://creativecommons.org/ns#"
   xmlns:rdf="http://www.w3.org/1999/02/22-rdf-syntax-ns#"
   xmlns:svg="http://www.w3.org/2000/svg"
   xmlns="http://www.w3.org/2000/svg"
   xmlns:sodipodi="http://sodipodi.sourceforge.net/DTD/sodipodi-0.dtd"
   xmlns:inkscape="http://www.inkscape.org/namespaces/inkscape"
   version="1.1"
   id="Layer_1"
   width="440.796"
   height="66.846"
   viewBox="0 0 440.796 66.846"
   overflow="visible"
   enable-background="new 0 0 440.796 66.846"
   xml:space="preserve"
   inkscape:version="0.48.4 r9939"
   sodipodi:docname="samueldejong.svg"><metadata
     id="metadata123"><rdf:RDF><cc:Work
         rdf:about=""><dc:format>image/svg+xml</dc:format><dc:type
           rdf:resource="http://purl.org/dc/dcmitype/StillImage" /></cc:Work></rdf:RDF></metadata><defs
     id="defs121" /><sodipodi:namedview
     pagecolor="#ffffff"
     bordercolor="#666666"
     borderopacity="1"
     objecttolerance="10"
     gridtolerance="10"
     guidetolerance="10"
     inkscape:pageopacity="0"
     inkscape:pageshadow="2"
     inkscape:window-width="1535"
     inkscape:window-height="876"
     id="namedview119"
     showgrid="false"
     inkscape:zoom="2.6497518"
     inkscape:cx="270.33769"
     inkscape:cy="-51.709935"
     inkscape:window-x="65"
     inkscape:window-y="24"
     inkscape:window-maximized="1"
     inkscape:current-layer="Layer_1" /><path
     style="fill:#202e50"
     inkscape:connector-curvature="0"
     id="path5"
     d="M 0.563,28.388 C 0.037,28.125 0,27.975 0,26.963 c 0,-1.875 0.149,-3.375 0.188,-3.975 0.037,-0.413 0.112,-0.6 0.3,-0.6 0.225,0 0.263,0.112 0.263,0.413 0,0.337 0,0.862 0.112,1.387 0.563,2.775 3.037,3.825 5.55,3.825 3.601,0 5.362,-2.587 5.362,-4.988 0,-2.587 -1.087,-4.087 -4.313,-6.75 L 5.774,14.888 C 1.8,11.625 0.899,9.3 0.899,6.75 0.899,2.737 3.899,0 8.662,0 c 1.463,0 2.55,0.15 3.487,0.375 0.713,0.15 1.013,0.188 1.313,0.188 0.301,0 0.375,0.075 0.375,0.262 0,0.187 -0.149,1.425 -0.149,3.975 0,0.6 -0.075,0.863 -0.263,0.863 -0.225,0 -0.263,-0.188 -0.3,-0.488 C 13.087,4.725 12.862,3.713 12.638,3.3 12.412,2.887 11.4,1.313 7.95,1.313 c -2.588,0 -4.613,1.612 -4.613,4.35 0,2.137 0.976,3.487 4.575,6.3 l 1.05,0.825 c 4.426,3.487 5.476,5.813 5.476,8.813 0,1.538 -0.601,4.388 -3.188,6.225 C 9.638,28.95 7.612,29.4 5.587,29.4 3.824,29.4 2.1,29.138 0.563,28.388 z" /><path
     style="fill:#202e50"
     inkscape:connector-curvature="0"
     id="path7"
     d="m 28.5,5.4 c 0.412,-1.05 0.563,-1.237 0.787,-1.237 0.338,0 0.45,0.45 0.788,1.163 0.6,1.35 5.887,14.512 7.912,19.35 1.2,2.85 2.1,3.262 2.813,3.487 0.487,0.15 0.975,0.188 1.313,0.188 0.188,0 0.412,0.075 0.412,0.263 0,0.188 -0.375,0.262 -0.75,0.262 -0.487,0 -2.925,0 -5.212,-0.075 -0.638,-0.038 -1.163,-0.038 -1.163,-0.225 0,-0.15 0.075,-0.15 0.226,-0.225 0.188,-0.075 0.524,-0.337 0.3,-0.862 l -2.963,-7.313 c -0.074,-0.15 -0.112,-0.188 -0.3,-0.188 H 25.05 c -0.15,0 -0.263,0.075 -0.338,0.262 l -1.875,5.1 c -0.3,0.788 -0.487,1.575 -0.487,2.138 0,0.637 0.563,0.862 1.125,0.862 h 0.3 c 0.263,0 0.338,0.113 0.338,0.263 0,0.188 -0.188,0.262 -0.487,0.262 -0.788,0 -2.588,-0.112 -2.963,-0.112 -0.338,0 -1.987,0.112 -3.338,0.112 -0.412,0 -0.637,-0.075 -0.637,-0.262 0,-0.15 0.149,-0.263 0.3,-0.263 0.225,0 0.712,-0.038 0.975,-0.075 1.5,-0.188 2.138,-1.313 2.775,-2.925 L 28.5,5.4 z m 3.675,13.275 c 0.15,0 0.15,-0.075 0.112,-0.225 L 29.024,9.712 c -0.188,-0.487 -0.375,-0.487 -0.563,0 l -3.075,8.738 c -0.037,0.15 0,0.225 0.113,0.225 h 6.676 z" /><path
     style="fill:#202e50"
     inkscape:connector-curvature="0"
     id="path9"
     d="m 72.449,24.75 c 0.112,1.125 0.338,2.85 1.688,3.3 0.938,0.3 1.8,0.3 2.138,0.3 0.149,0 0.263,0.075 0.263,0.225 0,0.188 -0.301,0.3 -0.676,0.3 -0.75,0 -4.425,-0.075 -5.625,-0.188 -0.787,-0.075 -0.938,-0.188 -0.938,-0.337 0,-0.112 0.075,-0.225 0.226,-0.262 0.188,-0.038 0.225,-0.525 0.149,-1.125 L 68.099,10.838 h -0.074 l -7.95,16.275 C 59.399,28.5 59.212,28.8 58.911,28.8 c -0.3,0 -0.487,-0.3 -1.125,-1.462 -0.862,-1.575 -3.037,-5.663 -3.862,-7.388 -0.975,-2.025 -3.638,-7.388 -4.2,-8.7 H 49.575 L 48.3,25.65 c -0.037,0.487 -0.037,1.087 -0.037,1.612 0,0.487 0.3,0.788 0.787,0.9 0.563,0.15 1.05,0.188 1.275,0.188 0.112,0 0.262,0.113 0.262,0.225 0,0.225 -0.225,0.3 -0.6,0.3 -1.237,0 -2.813,-0.112 -3.075,-0.112 -0.3,0 -1.875,0.112 -2.774,0.112 -0.338,0 -0.563,-0.075 -0.563,-0.3 0,-0.112 0.149,-0.225 0.337,-0.225 0.263,0 0.487,-0.038 0.976,-0.112 1.087,-0.188 1.125,-1.35 1.274,-2.55 l 2.4,-20.813 c 0.037,-0.337 0.188,-0.563 0.375,-0.563 0.225,0 0.487,0.112 0.675,0.487 l 9.976,19.8 9.6,-19.763 c 0.15,-0.3 0.3,-0.525 0.525,-0.525 0.225,0 0.412,0.262 0.487,0.862 l 2.249,19.577 z" /><path
     style="fill:#202e50"
     inkscape:connector-curvature="0"
     id="path11"
     d="m 80.773,13.987 c 0,-4.95 0,-5.85 -0.075,-6.862 C 80.623,6.113 80.435,5.513 79.348,5.362 79.085,5.325 78.523,5.287 78.223,5.287 c -0.112,0 -0.263,-0.15 -0.263,-0.263 0,-0.188 0.15,-0.262 0.525,-0.263 1.5,0 3.487,0.075 3.787,0.075 0.3,0 2.362,-0.075 3.338,-0.075 0.375,0 0.563,0.075 0.563,0.262 0,0.113 -0.15,0.263 -0.301,0.263 -0.225,0 -0.412,0 -0.824,0.075 -0.863,0.15 -1.051,0.713 -1.125,1.763 -0.075,1.013 -0.075,1.913 -0.075,6.862 v 4.463 c 0,4.612 1.013,6.525 2.438,7.8 1.612,1.463 3.037,1.725 4.912,1.725 2.025,0 3.976,-0.9 5.101,-2.25 1.537,-1.837 1.875,-4.462 1.875,-7.725 v -4.013 c 0,-4.95 -0.038,-5.85 -0.075,-6.862 C 98.062,6.112 97.874,5.512 96.786,5.361 96.523,5.324 95.961,5.286 95.661,5.286 c -0.15,0 -0.263,-0.15 -0.263,-0.263 0,-0.188 0.15,-0.262 0.525,-0.263 1.463,0 3.375,0.075 3.563,0.075 0.225,0 1.8,-0.075 2.774,-0.075 0.375,0 0.525,0.075 0.525,0.262 0,0.113 -0.112,0.263 -0.263,0.263 -0.225,0 -0.412,0 -0.825,0.075 -0.899,0.188 -1.087,0.713 -1.162,1.763 -0.075,1.013 -0.037,1.913 -0.037,6.862 V 17.4 c 0,3.45 -0.45,7.313 -3.075,9.563 -2.4,2.063 -4.95,2.325 -6.9,2.325 -1.087,0 -4.537,-0.075 -6.862,-2.25 -1.612,-1.5 -2.888,-3.712 -2.888,-8.362 v -4.689 z" /><path
     style="fill:#202e50"
     inkscape:connector-curvature="0"
     id="path13"
     d="m 109.911,13.987 c 0,-4.95 0,-5.85 -0.075,-6.862 -0.075,-1.087 -0.263,-1.612 -1.35,-1.763 -0.263,-0.037 -0.825,-0.075 -1.125,-0.075 -0.112,0 -0.263,-0.15 -0.263,-0.263 0,-0.188 0.15,-0.262 0.525,-0.262 1.5,0 3.637,0.075 3.824,0.075 0.226,0 7.126,0.038 7.876,0 0.637,-0.038 1.237,-0.15 1.5,-0.188 0.149,-0.038 0.3,-0.15 0.449,-0.15 0.113,0 0.15,0.15 0.15,0.3 0,0.225 -0.188,0.6 -0.263,1.5 -0.037,0.3 -0.112,1.725 -0.188,2.1 -0.037,0.15 -0.149,0.337 -0.3,0.337 -0.188,0 -0.263,-0.15 -0.263,-0.412 0,-0.225 -0.037,-0.75 -0.188,-1.125 -0.225,-0.525 -0.563,-0.75 -2.362,-0.975 -0.563,-0.075 -4.388,-0.113 -4.763,-0.113 -0.15,0 -0.188,0.113 -0.188,0.338 v 8.662 c 0,0.225 0,0.338 0.188,0.338 0.412,0 4.763,0 5.513,-0.075 0.787,-0.075 1.275,-0.112 1.612,-0.45 0.226,-0.225 0.375,-0.412 0.487,-0.412 0.113,0 0.188,0.075 0.188,0.262 0,0.187 -0.188,0.712 -0.262,1.763 -0.075,0.638 -0.15,1.837 -0.15,2.063 0,0.263 -0.075,0.6 -0.3,0.6 -0.15,0 -0.226,-0.113 -0.226,-0.3 0,-0.3 0,-0.637 -0.149,-1.05 -0.112,-0.45 -0.413,-0.825 -1.688,-0.975 -0.9,-0.112 -4.425,-0.15 -4.988,-0.15 -0.188,0 -0.225,0.112 -0.225,0.225 v 2.663 c 0,1.087 -0.037,4.8 0,5.438 0.075,2.137 0.675,2.55 3.938,2.55 0.862,0 2.438,0 3.3,-0.337 0.863,-0.375 1.313,-0.938 1.5,-2.212 0.075,-0.375 0.15,-0.488 0.338,-0.488 0.188,0 0.225,0.263 0.225,0.488 0,0.225 -0.262,2.4 -0.449,3.075 -0.226,0.825 -0.563,0.825 -1.838,0.825 -2.475,0 -4.388,-0.075 -5.737,-0.112 -1.388,-0.075 -2.25,-0.075 -2.738,-0.075 -0.074,0 -0.712,0 -1.425,0.038 -0.638,0.038 -1.388,0.075 -1.912,0.075 -0.338,0 -0.525,-0.075 -0.525,-0.262 0,-0.113 0.075,-0.263 0.263,-0.263 0.3,0 0.713,-0.112 1.013,-0.15 0.638,-0.112 0.712,-0.75 0.862,-1.688 0.188,-1.313 0.188,-3.825 0.188,-6.9 v -5.628 z" /><path
     style="fill:#202e50"
     inkscape:connector-curvature="0"
     id="path15"
     d="m 133.573,19.688 c 0,4.688 0.075,6.6 0.675,7.163 0.525,0.525 1.801,0.75 4.388,0.75 1.726,0 3.188,-0.038 3.976,-0.975 0.412,-0.487 0.675,-1.162 0.787,-1.8 0.037,-0.225 0.15,-0.413 0.338,-0.413 0.149,0 0.225,0.15 0.225,0.488 0,0.337 -0.225,2.25 -0.487,3.188 -0.226,0.75 -0.338,0.862 -2.101,0.862 -2.362,0 -4.199,-0.038 -5.737,-0.112 -1.5,-0.038 -2.625,-0.075 -3.6,-0.075 -0.15,0 -0.713,0 -1.351,0.038 -0.675,0.038 -1.388,0.075 -1.912,0.075 -0.338,0 -0.525,-0.075 -0.525,-0.262 0,-0.113 0.075,-0.263 0.263,-0.263 0.3,0 0.713,-0.075 1.013,-0.15 0.638,-0.15 0.712,-0.75 0.862,-1.688 0.188,-1.313 0.188,-3.825 0.188,-6.9 v -5.625 c 0,-4.95 0,-5.85 -0.075,-6.862 -0.075,-1.087 -0.263,-1.612 -1.35,-1.763 -0.263,-0.037 -0.825,-0.075 -1.125,-0.075 -0.112,0 -0.263,-0.15 -0.263,-0.263 0,-0.188 0.15,-0.262 0.525,-0.263 1.5,0 3.563,0.075 3.75,0.075 0.149,0 2.625,-0.075 3.638,-0.075 0.337,0 0.524,0.075 0.524,0.262 0,0.113 -0.149,0.225 -0.263,0.225 -0.225,0 -0.712,0.038 -1.087,0.075 -0.976,0.188 -1.163,0.675 -1.238,1.8 -0.037,1.013 -0.037,1.913 -0.037,6.862 v 5.701 z" /><path
     style="fill:#202e50"
     inkscape:connector-curvature="0"
     id="path17"
     d="m 162.822,13.987 c 0,-4.95 0,-5.85 -0.075,-6.862 -0.075,-1.087 -0.263,-1.612 -1.35,-1.763 -0.263,-0.037 -0.825,-0.075 -1.125,-0.075 -0.112,0 -0.263,-0.15 -0.263,-0.263 0,-0.188 0.15,-0.262 0.525,-0.263 1.5,0 3.637,0.075 3.824,0.075 0.375,0 2.476,-0.075 4.426,-0.075 3.3,0 9.337,-0.3 13.237,3.637 1.65,1.65 3.225,4.313 3.225,8.1 0,4.013 -1.725,7.087 -3.563,8.963 -1.425,1.462 -4.387,3.675 -10.012,3.675 -1.426,0 -3.188,-0.112 -4.613,-0.188 -1.425,-0.112 -2.55,-0.188 -2.7,-0.188 -0.074,0 -0.675,0.038 -1.35,0.038 -0.675,0.038 -1.463,0.075 -1.987,0.075 -0.338,0 -0.525,-0.075 -0.525,-0.262 0,-0.113 0.075,-0.263 0.263,-0.263 0.3,0 0.713,-0.075 1.013,-0.15 0.638,-0.15 0.712,-0.75 0.862,-1.688 0.188,-1.313 0.188,-3.825 0.188,-6.9 v -5.623 z m 3,3.451 c 0,3.375 0,6.337 0.037,6.938 0.038,0.788 0.113,1.95 0.375,2.288 0.413,0.6 1.575,1.275 5.476,1.275 3.037,0 5.737,-1.012 7.725,-2.887 1.726,-1.613 2.588,-4.65 2.588,-7.575 0,-4.05 -1.763,-6.638 -3.112,-7.988 -3.112,-3.15 -6.75,-3.563 -10.688,-3.563 -0.638,0 -1.688,0.113 -1.988,0.225 -0.3,0.113 -0.412,0.263 -0.412,0.638 v 10.649 z" /><path
     style="fill:#202e50"
     inkscape:connector-curvature="0"
     id="path19"
     d="m 192.823,13.987 c 0,-4.95 0,-5.85 -0.075,-6.862 -0.075,-1.087 -0.263,-1.612 -1.35,-1.763 -0.263,-0.037 -0.825,-0.075 -1.125,-0.075 -0.112,0 -0.263,-0.15 -0.263,-0.263 0,-0.188 0.15,-0.262 0.525,-0.262 1.5,0 3.637,0.075 3.824,0.075 0.226,0 7.126,0.038 7.876,0 0.637,-0.038 1.237,-0.15 1.5,-0.188 0.149,-0.038 0.3,-0.15 0.449,-0.15 0.113,0 0.15,0.15 0.15,0.3 0,0.225 -0.188,0.6 -0.263,1.5 -0.037,0.3 -0.112,1.725 -0.188,2.1 -0.037,0.15 -0.149,0.337 -0.3,0.337 -0.188,0 -0.263,-0.15 -0.263,-0.412 0,-0.225 -0.037,-0.75 -0.188,-1.125 -0.225,-0.525 -0.563,-0.75 -2.362,-0.975 -0.563,-0.075 -4.388,-0.113 -4.763,-0.113 -0.15,0 -0.188,0.113 -0.188,0.338 v 8.662 c 0,0.225 0,0.338 0.188,0.338 0.412,0 4.763,0 5.513,-0.075 0.787,-0.075 1.275,-0.112 1.612,-0.45 0.226,-0.225 0.375,-0.412 0.487,-0.412 0.113,0 0.188,0.075 0.188,0.262 0,0.187 -0.188,0.712 -0.262,1.763 -0.075,0.638 -0.15,1.837 -0.15,2.063 0,0.263 -0.075,0.6 -0.3,0.6 -0.15,0 -0.226,-0.113 -0.226,-0.3 0,-0.3 0,-0.637 -0.149,-1.05 -0.112,-0.45 -0.413,-0.825 -1.688,-0.975 -0.9,-0.112 -4.425,-0.15 -4.988,-0.15 -0.188,0 -0.225,0.112 -0.225,0.225 v 2.663 c 0,1.087 -0.037,4.8 0,5.438 0.075,2.137 0.675,2.55 3.938,2.55 0.862,0 2.438,0 3.3,-0.337 0.863,-0.375 1.313,-0.938 1.5,-2.212 0.075,-0.375 0.15,-0.488 0.338,-0.488 0.188,0 0.225,0.263 0.225,0.488 0,0.225 -0.262,2.4 -0.449,3.075 -0.226,0.825 -0.563,0.825 -1.838,0.825 -2.475,0 -4.388,-0.075 -5.737,-0.112 -1.388,-0.075 -2.25,-0.075 -2.738,-0.075 -0.074,0 -0.712,0 -1.425,0.038 -0.638,0.038 -1.388,0.075 -1.912,0.075 -0.338,0 -0.525,-0.075 -0.525,-0.262 0,-0.113 0.075,-0.263 0.263,-0.263 0.3,0 0.713,-0.112 1.013,-0.15 0.638,-0.112 0.712,-0.75 0.862,-1.688 0.188,-1.313 0.188,-3.825 0.188,-6.9 v -5.628 z" /><path
     style="fill:#202e50"
     inkscape:connector-curvature="0"
     id="path21"
     d="m 229.686,20.4 c 0,6.075 0,8.4 -1.125,11.063 -0.788,1.875 -2.438,3.638 -5.476,5.737 -0.487,0.338 -1.087,0.75 -1.462,0.938 -0.075,0.037 -0.15,0.075 -0.263,0.075 -0.113,0 -0.263,-0.075 -0.263,-0.226 0,-0.225 0.188,-0.337 0.525,-0.563 0.45,-0.262 0.975,-0.712 1.313,-1.05 2.438,-2.475 3.6,-4.462 3.6,-14.137 V 11.4 c 0,-5.85 0,-6.9 -0.075,-8.1 -0.074,-1.275 -0.375,-1.875 -1.612,-2.137 -0.3,-0.075 -0.938,-0.113 -1.274,-0.113 -0.15,0 -0.301,-0.075 -0.301,-0.225 0,-0.225 0.188,-0.3 0.601,-0.3 1.688,0 4.05,0.112 4.237,0.112 0.187,0 2.55,-0.112 3.675,-0.112 0.413,0 0.601,0.075 0.601,0.3 0,0.15 -0.15,0.225 -0.3,0.225 -0.263,0 -0.488,0.038 -0.938,0.113 -1.013,0.188 -1.313,0.825 -1.388,2.137 -0.075,1.2 -0.075,2.25 -0.075,8.1 v 9 z" /><path
     style="fill:#202e50"
     inkscape:connector-curvature="0"
     id="path23"
     d="m 250.123,4.313 c 7.425,0 13.05,4.538 13.05,11.962 0,7.125 -5.287,13.013 -13.237,13.013 -9.038,0 -12.9,-6.788 -12.9,-12.525 -0.001,-5.138 3.974,-12.45 13.087,-12.45 z m 0.75,23.662 c 2.962,0 8.925,-1.575 8.925,-10.8 0,-7.65 -4.65,-11.663 -9.862,-11.663 -5.513,0 -9.488,3.45 -9.488,10.387 -0.001,7.426 4.462,12.076 10.425,12.076 z" /><path
     style="fill:#202e50"
     inkscape:connector-curvature="0"
     id="path25"
     d="m 271.46,24.525 c 0.075,2.625 0.375,3.412 1.274,3.637 0.601,0.15 1.351,0.188 1.65,0.188 0.15,0 0.263,0.113 0.263,0.263 0,0.188 -0.226,0.262 -0.6,0.262 -1.875,0 -3.188,-0.112 -3.488,-0.112 -0.3,0 -1.688,0.112 -3.188,0.112 -0.337,0 -0.524,-0.037 -0.524,-0.262 0,-0.15 0.112,-0.263 0.262,-0.263 0.263,0 0.863,-0.038 1.351,-0.188 0.825,-0.225 0.938,-1.087 0.938,-3.975 V 5.925 c 0,-1.275 0.188,-1.612 0.45,-1.612 0.375,0 0.938,0.638 1.274,0.975 0.525,0.525 5.325,5.625 10.426,10.875 3.262,3.375 6.787,7.163 7.8,8.212 L 289.01,8.4 c -0.037,-2.063 -0.225,-2.775 -1.237,-2.962 -0.6,-0.112 -1.35,-0.15 -1.612,-0.15 -0.226,0 -0.263,-0.188 -0.263,-0.3 0,-0.188 0.263,-0.225 0.638,-0.225 1.5,0 3.075,0.075 3.45,0.075 0.375,0 1.462,-0.075 2.813,-0.075 0.337,0 0.6,0.037 0.6,0.225 0,0.113 -0.149,0.3 -0.375,0.3 -0.15,0 -0.412,0 -0.787,0.075 -1.088,0.225 -1.163,0.863 -1.163,2.775 l -0.075,18.675 c 0,2.1 -0.037,2.288 -0.262,2.288 -0.338,0 -0.676,-0.262 -2.513,-1.95 -0.338,-0.3 -5.101,-4.988 -8.588,-8.625 -3.825,-4.012 -7.537,-7.913 -8.55,-9.038 l 0.374,15.037 z" /><path
     style="fill:#202e50"
     inkscape:connector-curvature="0"
     id="path27"
     d="m 316.311,20.738 c 0,-2.588 -0.075,-2.963 -1.425,-3.225 -0.263,-0.038 -0.825,-0.075 -1.125,-0.075 -0.113,0 -0.263,-0.15 -0.263,-0.262 0,-0.225 0.149,-0.263 0.524,-0.263 1.501,0 3.713,0.075 3.9,0.075 0.15,0 2.213,-0.075 3.225,-0.075 0.375,0 0.525,0.038 0.525,0.263 0,0.112 -0.15,0.262 -0.263,0.262 -0.225,0 -0.45,0 -0.825,0.075 -0.899,0.15 -1.162,0.637 -1.237,1.762 -0.037,1.013 -0.037,1.95 -0.037,3.3 v 3.563 c 0,1.462 -0.038,1.5 -0.45,1.725 -2.1,1.087 -5.1,1.425 -7.013,1.425 -2.513,0 -7.2,-0.3 -10.875,-3.413 -2.025,-1.688 -3.938,-5.1 -3.938,-9.075 0,-5.1 2.588,-8.7 5.513,-10.463 2.962,-1.8 6.263,-2.025 8.775,-2.025 2.1,0 4.425,0.375 5.063,0.525 0.675,0.15 1.837,0.337 2.662,0.337 0.338,0 0.412,0.15 0.412,0.3 0,0.45 -0.188,1.313 -0.188,4.5 0,0.525 -0.149,0.675 -0.375,0.675 -0.188,0 -0.225,-0.188 -0.225,-0.487 -0.037,-0.413 -0.225,-1.35 -0.75,-2.1 -0.825,-1.2 -3.338,-2.475 -7.612,-2.475 -1.987,0 -4.388,0.15 -6.9,2.063 -1.912,1.462 -3.263,4.313 -3.263,8.025 0,4.5 2.325,7.725 3.487,8.813 2.626,2.438 5.4,3.337 8.438,3.337 1.162,0 2.699,-0.112 3.563,-0.6 0.412,-0.225 0.675,-0.375 0.675,-0.975 v -5.512 z" /><text
     xml:space="preserve"
     style="font-size:18px;font-style:normal;font-weight:normal;line-height:125%;letter-spacing:0px;word-spacing:0px;fill:#000000;fill-opacity:1;stroke:none;font-family:Sans;-inkscape-font-specification:Sans"
     x="157.75063"
     y="59.298122"
     id="text3100"
     sodipodi:linespacing="125%"
     transform="translate(0,-1.0946758e-6)"><tspan
       sodipodi:role="line"
       id="tspan3102"
       x="157.75063"
       y="59.298122" /></text>
<text
     xml:space="preserve"
     style="font-size:18px;font-style:normal;font-weight:normal;line-height:125%;letter-spacing:0px;word-spacing:0px;fill:#000000;fill-opacity:1;stroke:none;font-family:Sans;-inkscape-font-specification:Sans"
     x="111.01282"
     y="160.77992"
     id="text3589"
     sodipodi:linespacing="125%"
     transform="translate(0,-1.0946758e-6)"><tspan
       sodipodi:role="line"
       id="tspan3591"
       x="111.01282"
       y="160.77992" /></text>
<g
     id="g3820"
     transform="translate(84.58479,-29.026271)"><path
       d="m 209.07882,91.393735 c 0.417,0.567 0.967,0.867 1.283,0.983 l -0.133,0.283 c -0.134,0.1 -0.4,0.167 -0.767,0.167 -0.567,0 -1.367,-0.25 -1.667,-0.95 h -0.033 c -0.301,0.217 -1.267,0.95 -2.017,0.95 -1.417,0 -3.518,-1.083 -3.518,-3.684 0,-2.683 2.284,-4.066 4.051,-4.066 0.25,0 0.816,0.15 1.383,0.5 h 0.017 c 0,-1.216999 -0.017,-2.249997 -0.05,-3.516997 l -1.05,-0.433 0.15,-0.317 c 0.383,-0.15 1.267,-0.383 2.399,-0.533 -0.033,1.733 -0.05,3.367 -0.05,5.199997 v 5.417 z m -1.4,-5.183 c -0.333,-0.217 -0.833,-0.35 -1.233,-0.35 -1.583,0 -2.699,1.417 -2.699,3.033 0,1.616 1.1,2.934 2.583,2.934 0.333,0 0.816,-0.1 1.35,-0.483 v -5.134 z"
       id="path37-7-3"
       inkscape:connector-curvature="0"
       style="fill:#202e50" /><path
       inkscape:transform-center-y="1.6011464"
       inkscape:transform-center-x="-3.2164999"
       d="m 213.09964,88.726735 c -0.017,0.083 -0.017,0.15 -0.017,0.233 0,1.883 1.166,3 2.666,3 0.233,0 0.417,-0.034 0.567,-0.1 0.533,-0.383 1.033,-0.717 1.399,-0.9 l 0.083,0.267 c -0.1,0.367 -0.732,1.05 -0.949,1.2 -0.317,0.15 -1.167,0.4 -1.75,0.4 -2.067,0 -3.534,-1.434 -3.534,-3.733 0,-2.383 1.717,-4.017 3.617,-4.017 1.517,0 2.816,1.017 2.816,2.883 0,0.2 -0.05,0.45 -0.166,0.533 -0.167,0.066 -0.801,0.233 -1.567,0.233 h -3.165 z m 3.333,-0.633 c 0.05,-0.117 0.083,-0.317 0.083,-0.5 0,-1 -0.5,-1.934 -1.467,-1.934 -1.383,0 -1.933,1.717 -1.933,2.434 h 3.317 z"
       id="path71-6"
       inkscape:connector-curvature="0"
       style="fill:#202e50" /><path
       d="m 224.43418,85.291735 -0.317,0.6 -2.233,0.2 c 0,0.783 -0.017,2.683 -0.017,4.683 0,0.417 0.167,0.667 0.267,0.784 0.184,0.133 0.434,0.25 0.834,0.25 0.616,0 1.083,-0.2 1.35,-0.4 l 0.066,0.034 -0.017,0.517 c -0.416,0.5 -1.066,0.867 -1.933,0.867 -0.65,0 -1.217,-0.267 -1.601,-0.7 -0.267,-0.367 -0.383,-0.717 -0.383,-1.8 v -4.233 l -1.117,-0.217 0.283,-0.583 h 0.867 c 0.066,-0.466 0.25,-1.349994 0.45,-1.916994 0.216,-0.267 0.783,-0.5 1,-0.5 l -0.051,2.416994 h 2.552 z"
       id="path95-7"
       inkscape:connector-curvature="0"
       style="fill:#202e50" /><path
       d="m 227.0176,88.726735 c -0.017,0.083 -0.017,0.15 -0.017,0.233 0,1.883 1.166,3 2.666,3 0.233,0 0.417,-0.034 0.567,-0.1 0.533,-0.383 1.033,-0.717 1.399,-0.9 l 0.083,0.267 c -0.1,0.367 -0.732,1.05 -0.949,1.2 -0.317,0.15 -1.167,0.4 -1.75,0.4 -2.067,0 -3.534,-1.434 -3.534,-3.733 0,-2.383 1.717,-4.017 3.617,-4.017 1.517,0 2.816,1.017 2.816,2.883 0,0.2 -0.05,0.45 -0.166,0.533 -0.167,0.066 -0.801,0.233 -1.567,0.233 h -3.165 z m 3.333,-0.633 c 0.05,-0.117 0.083,-0.317 0.083,-0.5 0,-1 -0.5,-1.934 -1.467,-1.934 -1.383,0 -1.933,1.717 -1.933,2.434 h 3.317 z"
       id="path71-5"
       inkscape:connector-curvature="0"
       style="fill:#202e50" /><path
       d="m 233.54744,89.042735 c 0,-2.733 2.317,-3.966 4.284,-3.966 0.967,0 1.866,0.366 2.116,0.616 -0.1,0.434 -0.333,1.25 -0.616,1.784 l -0.25,0.1 c -0.134,-0.317 -0.351,-1 -0.533,-1.784 -0.101,-0.066 -0.301,-0.117 -0.634,-0.117 -1.85,0 -2.816,1.534 -2.816,3.167 0,1.85 1.166,3.167 2.967,3.167 0.133,0 0.35,-0.083 0.466,-0.133 0.584,-0.483 1.101,-0.816 1.384,-0.95 l 0.116,0.233 c -0.149,0.45 -0.767,1.2 -1.066,1.4 -0.25,0.1 -1.033,0.267 -1.566,0.267 -1.566,0 -3.851,-0.934 -3.851,-3.767 v -0.017 z"
       id="path99-3"
       inkscape:connector-curvature="0"
       style="fill:#202e50" /><path
       d="m 246.1998,85.291735 -0.317,0.6 -2.233,0.2 c 0,0.783 -0.017,2.683 -0.017,4.683 0,0.417 0.167,0.667 0.267,0.784 0.184,0.133 0.434,0.25 0.834,0.25 0.616,0 1.083,-0.2 1.35,-0.4 l 0.066,0.034 -0.017,0.517 c -0.416,0.5 -1.066,0.867 -1.933,0.867 -0.65,0 -1.217,-0.267 -1.601,-0.7 -0.267,-0.367 -0.383,-0.717 -0.383,-1.8 v -4.233 l -1.117,-0.217 0.283,-0.583 h 0.867 c 0.066,-0.466 0.25,-1.349996 0.45,-1.916996 0.216,-0.267 0.783,-0.5 1,-0.5 l -0.051,2.416996 h 2.552 z"
       id="path83-5"
       inkscape:connector-curvature="0"
       style="fill:#202e50" /><path
       d="m 255.90165,85.843735 c 0.25,-0.133 1.417,-0.53299 1.917,-0.56599 0.101,0.383 0.184,1.11599 0.167,1.63299 h 0.033 c 0.684,-1.184 1.667,-1.63299 2.316,-1.63299 0.334,0 0.65,0.1 0.817,0.283 -0.051,0.46699 -0.334,1.39999 -0.551,1.81599 l -0.199,0.117 c -0.167,-0.233 -0.367,-0.566 -0.601,-1.117 -0.066,-0.033 -0.133,-0.05 -0.25,-0.05 -0.5,0 -1.2,0.633 -1.517,1.433 v 4.217 l 1.684,0.483 -0.084,0.367 c -0.633,0 -1.466,-0.017 -2.366,-0.017 -0.533,0 -1.233,0.017 -1.733,0.017 l 0.083,-0.367 0.95,-0.5 c 0.066,-1.733 0.066,-4.483 0.066,-5.3 l -0.866,-0.483 0.134,-0.333 z"
       id="path93-6"
       inkscape:connector-curvature="0"
       style="fill:#202e50" /><path
       d="m 274.42605,85.291735 -0.317,0.6 -2.233,0.2 c 0,0.783 -0.017,2.683 -0.017,4.683 0,0.417 0.167,0.667 0.267,0.784 0.184,0.133 0.434,0.25 0.834,0.25 0.616,0 1.083,-0.2 1.35,-0.4 l 0.066,0.034 -0.017,0.517 c -0.416,0.5 -1.066,0.867 -1.933,0.867 -0.65,0 -1.217,-0.267 -1.601,-0.7 -0.267,-0.367 -0.383,-0.717 -0.383,-1.8 v -4.233 l -1.117,-0.217 0.283,-0.583 h 0.867 c 0.066,-0.466 0.25,-1.35 0.45,-1.917 0.216,-0.267 0.783,-0.50001 1,-0.50001 l -0.051,2.41701 h 2.552 z"
       id="path95-2"
       inkscape:connector-curvature="0"
       style="fill:#202e50" /><path
       d="m 277.00948,88.726735 c -0.017,0.083 -0.017,0.15 -0.017,0.233 0,1.883 1.166,3 2.666,3 0.233,0 0.417,-0.034 0.567,-0.1 0.533,-0.383 1.033,-0.717 1.399,-0.9 l 0.083,0.267 c -0.1,0.367 -0.732,1.05 -0.949,1.2 -0.317,0.15 -1.167,0.4 -1.75,0.4 -2.067,0 -3.534,-1.434 -3.534,-3.733 0,-2.383 1.717,-4.017 3.617,-4.017 1.517,0 2.816,1.017 2.816,2.883 0,0.2 -0.05,0.45 -0.166,0.533 -0.167,0.066 -0.801,0.233 -1.567,0.233 h -3.165 z m 3.333,-0.633 c 0.05,-0.117 0.083,-0.317 0.083,-0.5 0,-1 -0.5,-1.934 -1.467,-1.934 -1.383,0 -1.933,1.717 -1.933,2.434 h 3.317 z"
       id="path71-9"
       inkscape:connector-curvature="0"
       style="fill:#202e50" /><path
       d="m 283.53931,89.042735 c 0,-2.733 2.317,-3.966 4.284,-3.966 0.967,0 1.866,0.366 2.116,0.616 -0.1,0.434 -0.333,1.25 -0.616,1.784 l -0.25,0.1 c -0.134,-0.317 -0.351,-1 -0.533,-1.784 -0.101,-0.066 -0.301,-0.117 -0.634,-0.117 -1.85,0 -2.816,1.534 -2.816,3.167 0,1.85 1.166,3.167 2.967,3.167 0.133,0 0.35,-0.083 0.466,-0.133 0.584,-0.483 1.101,-0.816 1.384,-0.95 l 0.116,0.233 c -0.149,0.45 -0.767,1.2 -1.066,1.4 -0.25,0.1 -1.033,0.267 -1.566,0.267 -1.566,0 -3.851,-0.934 -3.851,-3.767 v -0.017 z"
       id="path99-1"
       inkscape:connector-curvature="0"
       style="fill:#202e50" /><path
       d="m 298.28912,91.555615 c 0,0.3 0.083,0.367 0.333,0.467 l 0.884,0.433 -0.117,0.367 c -0.699,0.017 -1.717,-0.017 -2.649,-0.133 0.083,-0.7 0.149,-1.783 0.149,-4.25 0,-1.9 -1,-2.233 -1.8,-2.233 -0.616,0 -1.149,0.217 -1.633,0.6 0,1.633 0,4.8 0.05,5.1 l 1.2,0.517 -0.134,0.367 c -0.616,0 -1.2,-0.033 -1.833,-0.033 -0.584,0 -1.167,0.033 -1.75,0.033 l 0.116,-0.383 0.9,-0.5 c 0.033,-0.217 0.05,-1.683 0.05,-3.867 0,-2.1 0,-4 -0.05,-5.81701 l -0.967,-0.433 0.1,-0.317 c 0.483,-0.167 1.3,-0.35 2.367,-0.533 -0.033,1.6 -0.05,3.48301 -0.05,5.28301 l 0.033,0.017 c 1.066,-0.833 1.733,-1 2.316,-1 1.7,0 2.483,1.4 2.483,2.517 v 3.798 z"
       id="path107-6-2"
       inkscape:connector-curvature="0"
       style="fill:#202e50" /><path
       d="m 301.09656,86.624735 -0.883,-0.383 0.116,-0.35 c 0.267,-0.15 1.634,-0.6 2.167,-0.616 l -0.1,1.316 h 0.034 c 1.267,-1.033 1.967,-1.316 2.633,-1.316 1.733,0 2.25,1.417 2.25,2.65 v 3.783 c 0,0.167 0.084,0.25 0.233,0.317 l 0.983,0.417 -0.116,0.383 c -0.45,0 -1.217,-0.017 -1.867,-0.017 -0.467,0 -0.967,0.017 -1.483,0.017 l 0.117,-0.417 0.666,-0.483 c 0.034,-0.5 0.067,-1.684 0.067,-3.867 0,-1.267 -0.717,-1.783 -1.567,-1.783 -0.699,0 -1.449,0.5 -1.85,0.917 0,1.267 0,4.45 0.033,4.8 l 0.934,0.434 -0.1,0.4 c -0.434,-0.017 -1.067,-0.017 -1.601,-0.017 -0.583,0 -1.217,0.017 -1.75,0.017 l 0.117,-0.383 0.916,-0.467 c 0.033,-0.267 0.05,-1.783 0.05,-3.883 v -1.469 z"
       id="path81-7"
       inkscape:connector-curvature="0"
       style="fill:#202e50" /><path
       d="m 321.2734,92.560163 -0.149,0.4 c -0.634,0 -1.184,-0.017 -1.767,-0.017 -0.617,0 -1.25,0.017 -1.867,0.017 l 0.084,-0.367 1.05,-0.483 c 0.017,-0.683 0.033,-1.716 0.033,-5.783 0,-1.5 0,-3.167 -0.05,-3.983 l -0.967,-0.4 0.167,-0.350003 c 0.55,-0.184 1.583,-0.4 2.3,-0.483 -0.033,1.717003 -0.05,3.333003 -0.05,5.150003 0,3.35 0.017,4.617 0.033,5.85 l 1.183,0.449 z"
       id="path101-0"
       inkscape:connector-curvature="0"
       style="fill:#202e50" /><path
       d="m 339.78001,85.893163 c 0.267,-0.083 1.267,-0.383 2.217,-0.483 v 3.367 c 0,1.867 0.017,2.833 0.033,3.3 l 1.184,0.5 -0.117,0.383 c -0.583,0 -1.216,-0.017 -1.866,-0.017 -0.533,0 -1.083,0.017 -1.733,0.017 l 0.116,-0.383 0.95,-0.5 c 0.017,-0.567 0.033,-2 0.033,-3.333 v -2.1 l -0.899,-0.433 0.082,-0.318 z m 1.566,-3.933 c 0.233,0.083 0.684,0.583 0.834,0.933 l -0.033,0.133 c -0.15,0.317 -0.65,0.817 -0.884,0.95 l -0.134,0.033 c -0.283,-0.167 -0.666,-0.633 -0.816,-0.95 l 0.033,-0.133 c 0.233,-0.384 0.617,-0.784 0.9,-0.95 l 0.1,-0.016 z"
       id="path97-9"
       inkscape:connector-curvature="0"
       style="fill:#202e50" /><path
       d="m 347.17631,85.209163 c 0.367,0 0.834,0.133 1.233,0.4 0.267,-0.184 0.584,-0.333 0.867,-0.434 l 0.133,0.117 c 0,0.3 -0.233,1.633 -0.399,2.017 l -0.233,0.1 c -0.18401,-0.333 -0.417,-0.867 -0.58401,-1.283 -0.1,-0.083 -0.399,-0.283 -0.98299,-0.283 -0.83301,0 -1.26701,0.55 -1.26701,1.15 0,0.4 0.15,0.65 0.601,0.917 0.51701,0.283 1.43401,0.667 2,0.95 0.91601,0.45 1.26701,1.066 1.26701,1.767 0,1.817 -1.9,2.333 -2.93401,2.333 -0.88299,0 -1.833,-0.317 -2.41699,-0.717 0,-0.317 0.284,-1.583 0.384,-1.817 l 0.233,-0.133 c 0.233,0.434 0.6,1.45 0.783,1.9 0.25,0.1 0.617,0.167 1.017,0.167 0.884,0 1.55,-0.533 1.55,-1.217 0,-0.45 -0.149,-0.75 -0.666,-1 -0.45,-0.25 -1,-0.5 -1.617,-0.8 -0.917,-0.417 -1.467,-1.034 -1.467,-1.967 0,-1.05 0.817,-2.167 2.483,-2.167 h 0.016 z"
       id="path111-3"
       inkscape:connector-curvature="0"
       style="fill:#202e50" /><path
       d="m 356.21121,85.425163 -0.317,0.6 -2.233,0.2 c 0,0.783 -0.017,2.683 -0.017,4.683 0,0.417 0.167,0.667 0.267,0.784 0.184,0.133 0.434,0.25 0.834,0.25 0.616,0 1.083,-0.2 1.35,-0.4 l 0.066,0.034 -0.017,0.517 c -0.416,0.5 -1.066,0.867 -1.933,0.867 -0.65,0 -1.217,-0.267 -1.601,-0.7 -0.267,-0.367 -0.383,-0.717 -0.383,-1.8 v -4.233 l -1.117,-0.217 0.283,-0.583 h 0.867 c 0.066,-0.466 0.25,-1.35 0.45,-1.917 0.216,-0.267 0.783,-0.5 1,-0.5 l -0.051,2.417 h 2.552 z"
       id="path95-6"
       inkscape:connector-curvature="0"
       style="fill:#202e50" /><g
       id="flowRoot3581"
       style="font-size:14px;font-style:normal;font-variant:normal;font-weight:normal;font-stretch:normal;line-height:125%;letter-spacing:0px;word-spacing:0px;fill:#202e50;fill-opacity:1;stroke:none;font-family:Serif;-inkscape-font-specification:Serif"
       transform="translate(99.540898,-42.607245)"><path
         inkscape:connector-curvature="0"
         id="path3818"
         style="fill:#202e50;font-family:Serif;-inkscape-font-specification:Serif"
         d="m 150.99219,134.75722 c 0.67447,0 1.18261,-0.2666 1.52441,-0.7998 0.34635,-0.5332 0.51953,-1.31934 0.51953,-2.3584 0,-1.03906 -0.17318,-1.82291 -0.51953,-2.35156 -0.3418,-0.5332 -0.84994,-0.7998 -1.52441,-0.79981 -0.67449,1e-5 -1.1849,0.26661 -1.53125,0.79981 -0.3418,0.52865 -0.5127,1.3125 -0.5127,2.35156 0,1.03906 0.17318,1.8252 0.51953,2.3584 0.34635,0.5332 0.85449,0.7998 1.52442,0.7998 m 0,0.67676 c -1.0573,0 -1.90723,-0.34863 -2.54981,-1.0459 -0.64258,-0.70182 -0.96387,-1.63151 -0.96386,-2.78906 -1e-5,-1.15755 0.31901,-2.08496 0.95703,-2.78223 0.64257,-0.69726 1.49479,-1.04589 2.55664,-1.0459 1.06184,1e-5 1.91178,0.34864 2.5498,1.0459 0.64257,0.69727 0.96386,1.62468 0.96387,2.78223 -1e-5,1.15755 -0.3213,2.08724 -0.96387,2.78906 -0.63802,0.69727 -1.48796,1.0459 -2.5498,1.0459" /></g><g
       id="flowRoot3581-1"
       style="font-size:14px;font-style:normal;font-variant:normal;font-weight:normal;font-stretch:normal;line-height:125%;letter-spacing:0px;word-spacing:0px;fill:#202e50;fill-opacity:1;stroke:none;font-family:Serif;-inkscape-font-specification:Serif"
       transform="translate(183.27496,-42.473818)"><path
         id="path3812"
         style="fill:#202e50;font-family:Serif;-inkscape-font-specification:Serif"
         d="m 154.12988,128.70058 0,6.37793 c 0,1.04362 -0.28711,1.84798 -0.86133,2.41309 -0.57422,0.56966 -1.39225,0.85449 -2.4541,0.85449 -0.47852,0 -0.93652,-0.0433 -1.37402,-0.12988 -0.4375,-0.0866 -0.85677,-0.21648 -1.25781,-0.38965 l 0,-1.52442 0.65625,0 c 0.082,0.47396 0.27571,0.82032 0.58105,1.03907 0.30534,0.21874 0.74284,0.32812 1.3125,0.32812 0.73828,0 1.27832,-0.20964 1.62012,-0.6289 0.34635,-0.41472 0.51952,-1.06869 0.51953,-1.96192 l 0,-0.97754 c -0.2461,0.45573 -0.56055,0.79297 -0.94336,1.01172 -0.37826,0.21419 -0.84766,0.32129 -1.4082,0.32129 -0.89323,0 -1.62468,-0.35319 -2.19434,-1.05957 -0.5651,-0.71094 -0.84766,-1.63607 -0.84765,-2.77539 -1e-5,-1.13932 0.28255,-2.06217 0.84765,-2.76856 0.5651,-0.70637 1.29655,-1.05956 2.19434,-1.05957 0.56054,1e-5 1.02994,0.10939 1.4082,0.32813 0.38281,0.2142 0.69726,0.54916 0.94336,1.00488 l 0,-1.13476 2.46094,0 0,0.73144 -1.20313,0 m -1.25781,2.54297 c -1e-5,-0.87044 -0.16863,-1.5358 -0.50586,-1.99609 -0.33269,-0.46028 -0.81804,-0.69043 -1.45605,-0.69043 -0.64714,0 -1.13705,0.25521 -1.46973,0.76562 -0.32813,0.51042 -0.49219,1.26921 -0.49219,2.27637 0,1.00261 0.16406,1.76139 0.49219,2.27637 0.33268,0.51497 0.82259,0.77246 1.46973,0.77246 0.63801,0 1.12336,-0.22787 1.45605,-0.6836 0.33723,-0.46028 0.50585,-1.12792 0.50586,-2.00293 l 0,-0.71777"
         inkscape:connector-curvature="0" /></g><g
       id="flowRoot3581-4"
       style="font-size:14px;font-style:normal;font-variant:normal;font-weight:normal;font-stretch:normal;line-height:125%;letter-spacing:0px;word-spacing:0px;fill:#202e50;fill-opacity:1;stroke:none;font-family:Serif;-inkscape-font-specification:Serif"
       transform="translate(161.94684,-42.607247)"><path
         id="path3809"
         style="fill:#202e50;font-family:Serif;-inkscape-font-specification:Serif"
         d="m 150.99219,134.75722 c 0.67447,0 1.18261,-0.2666 1.52441,-0.7998 0.34635,-0.5332 0.51953,-1.31934 0.51953,-2.3584 0,-1.03906 -0.17318,-1.82291 -0.51953,-2.35156 -0.3418,-0.5332 -0.84994,-0.7998 -1.52441,-0.79981 -0.67449,1e-5 -1.1849,0.26661 -1.53125,0.79981 -0.3418,0.52865 -0.5127,1.3125 -0.5127,2.35156 0,1.03906 0.17318,1.8252 0.51953,2.3584 0.34635,0.5332 0.85449,0.7998 1.52442,0.7998 m 0,0.67676 c -1.0573,0 -1.90723,-0.34863 -2.54981,-1.0459 -0.64258,-0.70182 -0.96387,-1.63151 -0.96386,-2.78906 -1e-5,-1.15755 0.31901,-2.08496 0.95703,-2.78223 0.64257,-0.69726 1.49479,-1.04589 2.55664,-1.0459 1.06184,1e-5 1.91178,0.34864 2.5498,1.0459 0.64257,0.69727 0.96386,1.62468 0.96387,2.78223 -1e-5,1.15755 -0.3213,2.08724 -0.96387,2.78906 -0.63802,0.69727 -1.48796,1.0459 -2.5498,1.0459"
         inkscape:connector-curvature="0" /></g><g
       id="flowRoot3581-3"
       style="font-size:14px;font-style:normal;font-variant:normal;font-weight:normal;font-stretch:normal;line-height:125%;letter-spacing:0px;word-spacing:0px;fill:#202e50;fill-opacity:1;stroke:none;font-family:Serif;-inkscape-font-specification:Serif"
       transform="translate(174.85309,-42.473818)"><path
         id="path3815"
         style="fill:#202e50;font-family:Serif;-inkscape-font-specification:Serif"
         d="m 150.99219,134.75722 c 0.67447,0 1.18261,-0.2666 1.52441,-0.7998 0.34635,-0.5332 0.51953,-1.31934 0.51953,-2.3584 0,-1.03906 -0.17318,-1.82291 -0.51953,-2.35156 -0.3418,-0.5332 -0.84994,-0.7998 -1.52441,-0.79981 -0.67449,1e-5 -1.1849,0.26661 -1.53125,0.79981 -0.3418,0.52865 -0.5127,1.3125 -0.5127,2.35156 0,1.03906 0.17318,1.8252 0.51953,2.3584 0.34635,0.5332 0.85449,0.7998 1.52442,0.7998 m 0,0.67676 c -1.0573,0 -1.90723,-0.34863 -2.54981,-1.0459 -0.64258,-0.70182 -0.96387,-1.63151 -0.96386,-2.78906 -1e-5,-1.15755 0.31901,-2.08496 0.95703,-2.78223 0.64257,-0.69726 1.49479,-1.04589 2.55664,-1.0459 1.06184,1e-5 1.91178,0.34864 2.5498,1.0459 0.64257,0.69727 0.96386,1.62468 0.96387,2.78223 -1e-5,1.15755 -0.3213,2.08724 -0.96387,2.78906 -0.63802,0.69727 -1.48796,1.0459 -2.5498,1.0459"
         inkscape:connector-curvature="0" /></g></g><text
     xml:space="preserve"
     style="font-size:18px;font-style:normal;font-weight:normal;line-height:125%;letter-spacing:0px;word-spacing:0px;fill:#000000;fill-opacity:1;stroke:none;font-family:Sans;-inkscape-font-specification:Sans"
     x="288.33978"
     y="148.10419"
     id="text3687"
     sodipodi:linespacing="125%"
     transform="translate(0,-1.0946758e-6)"><tspan
       sodipodi:role="line"
       id="tspan3689"
       x="288.33978"
       y="148.10419" /></text>
</svg>