<?xml version="1.0" encoding="UTF-8" standalone="no"?>
<!-- Generator: Adobe Illustrator 12.0.1, SVG Export Plug-In . SVG Version: 6.00 Build 51448)  -->

<svg
   xmlns:dc="http://purl.org/dc/elements/1.1/"
   xmlns:cc="http://creativecommons.org/ns#"
   xmlns:rdf="http://www.w3.org/1999/02/22-rdf-syntax-ns#"
   xmlns:svg="http://www.w3.org/2000/svg"
   xmlns="http://www.w3.org/2000/svg"
   xmlns:sodipodi="http://sodipodi.sourceforge.net/DTD/sodipodi-0.dtd"
   xmlns:inkscape="http://www.inkscape.org/namespaces/inkscape"
   version="1.1"
   id="Layer_1"
   width="440.796"
   height="66.846"
   viewBox="0 0 440.796 66.846"
   overflow="visible"
   enable-background="new 0 0 440.796 66.846"
   xml:space="preserve"
   inkscape:version="0.48.4 r9939"
   sodipodi:docname="samueldejong.svg"><metadata
     id="metadata123"><rdf:RDF><cc:Work
         rdf:about=""><dc:format>image/svg+xml</dc:format><dc:type
           rdf:resource="http://purl.org/dc/dcmitype/StillImage" /></cc:Work></rdf:RDF></metadata><defs
     id="defs121" /><sodipodi:namedview
     pagecolor="#ffffff"
     bordercolor="#666666"
     borderopacity="1"
     objecttolerance="10"
     gridtolerance="10"
     guidetolerance="10"
     inkscape:pageopacity="0"
     inkscape:pageshadow="2"
     inkscape:window-width="1535"
     inkscape:window-height="876"
     id="namedview119"
     showgrid="false"
     inkscape:zoom="1.8736575"
     inkscape:cx="168.66619"
     inkscape:cy="35.525068"
     inkscape:window-x="65"
     inkscape:window-y="24"
     inkscape:window-maximized="1"
     inkscape:current-layer="Layer_1" /><g
     id="g3216"
     transform="translate(-249.11313,-23.776253)"><path
       d="m 408.514,85.321113 c 0.417,0.567 0.967,0.867 1.283,0.983 l -0.133,0.283 c -0.134,0.1 -0.4,0.167 -0.767,0.167 -0.567,0 -1.367,-0.25 -1.667,-0.95 h -0.033 c -0.301,0.217 -1.267,0.95 -2.017,0.95 -1.417,0 -3.518,-1.083 -3.518,-3.684 0,-2.683 2.284,-4.066 4.051,-4.066 0.25,0 0.816,0.15 1.383,0.5 h 0.017 c 0,-1.217 -0.017,-2.25 -0.05,-3.517 l -1.05,-0.433 0.15,-0.317 c 0.383,-0.15 1.267,-0.383 2.399,-0.533 -0.033,1.733 -0.05,3.367 -0.05,5.2 v 5.417 z m -1.4,-5.183 c -0.333,-0.217 -0.833,-0.35 -1.233,-0.35 -1.583,0 -2.699,1.417 -2.699,3.033 0,1.616 1.1,2.934 2.583,2.934 0.333,0 0.816,-0.1 1.35,-0.483 v -5.134 z"
       id="path37-7"
       inkscape:connector-curvature="0"
       style="fill:#202e50" /><g
       transform="translate(-0.613165,0)"
       id="g3208"><path
         style="fill:#202e50"
         inkscape:connector-curvature="0"
         id="path107-6"
         d="m 399.54581,85.482997 c 0,0.3 0.083,0.367 0.333,0.467 l 0.884,0.433 -0.117,0.367 c -0.699,0.017 -1.717,-0.017 -2.649,-0.133 0.083,-0.7 0.149,-1.783 0.149,-4.25 0,-1.9 -1,-2.233 -1.8,-2.233 -0.616,0 -1.149,0.217 -1.633,0.6 0,1.633 0,4.8 0.05,5.1 l 1.2,0.517 -0.134,0.367 c -0.616,0 -1.2,-0.033 -1.833,-0.033 -0.584,0 -1.167,0.033 -1.75,0.033 l 0.116,-0.383 0.9,-0.5 c 0.033,-0.217 0.05,-1.683 0.05,-3.867 0,-2.1 0,-4 -0.05,-5.817 l -0.967,-0.433 0.1,-0.317 c 0.483,-0.167 1.3,-0.35 2.367,-0.533 -0.033,1.6 -0.05,3.483 -0.05,5.283 l 0.033,0.017 c 1.066,-0.833 1.733,-1 2.316,-1 1.7,0 2.483,1.4 2.483,2.517 v 3.798 z" /><path
         style="fill:#202e50"
         inkscape:connector-curvature="0"
         id="path105-5"
         d="m 383.93952,80.183698 0.033,0.017 c 1.051,-0.733 1.768,-1.066 2.268,-1.066 1.383,0 3.216,1.167 3.216,3.55 0,2.95 -2.483,4.2 -4.033,4.2 -0.316,0 -1,-0.267 -1.383,-0.517 l -0.033,0.017 c 0,1.216 0.033,2.333 0.066,3.15 l 1.55,0.517 -0.15,0.383 c -0.75,0 -1.416,-0.017 -2.183,-0.017 -0.567,0 -1.167,0.017 -1.75,0.017 l 0.149,-0.417 0.851,-0.433 c 0.017,-0.567 0.066,-2.15 0.066,-4.583 v -4.617 l -0.934,-0.5 0.15,-0.333 c 0.267,-0.133 1.6,-0.434 2.184,-0.45 l -0.067,1.082 z m 0.068,5.55 c 0.3,0.184 0.767,0.35 1.25,0.35 1.399,0 2.683,-1.2 2.683,-3.133 0,-1.517 -0.916,-2.833 -2.383,-2.833 -0.417,0 -0.95,0.184 -1.55,0.617 v 4.999 z" /></g></g><g
     id="g3"><path
       fill="#202E50"
       d="M0.563,28.388C0.037,28.125,0,27.975,0,26.963c0-1.875,0.149-3.375,0.188-3.975   c0.037-0.413,0.112-0.6,0.3-0.6c0.225,0,0.263,0.112,0.263,0.413c0,0.337,0,0.862,0.112,1.387c0.563,2.775,3.037,3.825,5.55,3.825   c3.601,0,5.362-2.587,5.362-4.988c0-2.587-1.087-4.087-4.313-6.75l-1.688-1.387C1.8,11.625,0.899,9.3,0.899,6.75   c0-4.013,3-6.75,7.763-6.75c1.463,0,2.55,0.15,3.487,0.375c0.713,0.15,1.013,0.188,1.313,0.188c0.301,0,0.375,0.075,0.375,0.262   S13.688,2.25,13.688,4.8c0,0.6-0.075,0.863-0.263,0.863c-0.225,0-0.263-0.188-0.3-0.488c-0.038-0.45-0.263-1.462-0.487-1.875   c-0.226-0.413-1.238-1.987-4.688-1.987c-2.588,0-4.613,1.612-4.613,4.35c0,2.137,0.976,3.487,4.575,6.3l1.05,0.825   c4.426,3.487,5.476,5.813,5.476,8.813c0,1.538-0.601,4.388-3.188,6.225C9.638,28.95,7.612,29.4,5.587,29.4   C3.824,29.4,2.1,29.138,0.563,28.388z"
       id="path5" /><path
       fill="#202E50"
       d="M28.5,5.4c0.412-1.05,0.563-1.237,0.787-1.237c0.338,0,0.45,0.45,0.788,1.163   c0.6,1.35,5.887,14.512,7.912,19.35c1.2,2.85,2.1,3.262,2.813,3.487c0.487,0.15,0.975,0.188,1.313,0.188   c0.188,0,0.412,0.075,0.412,0.263s-0.375,0.262-0.75,0.262c-0.487,0-2.925,0-5.212-0.075c-0.638-0.038-1.163-0.038-1.163-0.225   c0-0.15,0.075-0.15,0.226-0.225c0.188-0.075,0.524-0.337,0.3-0.862l-2.963-7.313c-0.074-0.15-0.112-0.188-0.3-0.188H25.05   c-0.15,0-0.263,0.075-0.338,0.262l-1.875,5.1c-0.3,0.788-0.487,1.575-0.487,2.138c0,0.637,0.563,0.862,1.125,0.862h0.3   c0.263,0,0.338,0.113,0.338,0.263c0,0.188-0.188,0.262-0.487,0.262c-0.788,0-2.588-0.112-2.963-0.112   c-0.338,0-1.987,0.112-3.338,0.112c-0.412,0-0.637-0.075-0.637-0.262c0-0.15,0.149-0.263,0.3-0.263   c0.225,0,0.712-0.038,0.975-0.075c1.5-0.188,2.138-1.313,2.775-2.925L28.5,5.4z M32.175,18.675c0.15,0,0.15-0.075,0.112-0.225   l-3.263-8.738c-0.188-0.487-0.375-0.487-0.563,0l-3.075,8.738c-0.037,0.15,0,0.225,0.113,0.225H32.175z"
       id="path7" /><path
       fill="#202E50"
       d="M72.449,24.75c0.112,1.125,0.338,2.85,1.688,3.3c0.938,0.3,1.8,0.3,2.138,0.3   c0.149,0,0.263,0.075,0.263,0.225c0,0.188-0.301,0.3-0.676,0.3c-0.75,0-4.425-0.075-5.625-0.188   c-0.787-0.075-0.938-0.188-0.938-0.337c0-0.112,0.075-0.225,0.226-0.262c0.188-0.038,0.225-0.525,0.149-1.125l-1.575-16.125h-0.074   l-7.95,16.275C59.399,28.5,59.212,28.8,58.911,28.8c-0.3,0-0.487-0.3-1.125-1.462c-0.862-1.575-3.037-5.663-3.862-7.388   c-0.975-2.025-3.638-7.388-4.2-8.7h-0.149l-1.275,14.4c-0.037,0.487-0.037,1.087-0.037,1.612c0,0.487,0.3,0.788,0.787,0.9   c0.563,0.15,1.05,0.188,1.275,0.188c0.112,0,0.262,0.113,0.262,0.225c0,0.225-0.225,0.3-0.6,0.3c-1.237,0-2.813-0.112-3.075-0.112   c-0.3,0-1.875,0.112-2.774,0.112c-0.338,0-0.563-0.075-0.563-0.3c0-0.112,0.149-0.225,0.337-0.225c0.263,0,0.487-0.038,0.976-0.112   c1.087-0.188,1.125-1.35,1.274-2.55l2.4-20.813c0.037-0.337,0.188-0.563,0.375-0.563c0.225,0,0.487,0.112,0.675,0.487l9.976,19.8   l9.6-19.763c0.15-0.3,0.3-0.525,0.525-0.525c0.225,0,0.412,0.262,0.487,0.862L72.449,24.75z"
       id="path9" /><path
       fill="#202E50"
       d="M80.773,13.987c0-4.95,0-5.85-0.075-6.862s-0.263-1.612-1.35-1.763c-0.263-0.037-0.825-0.075-1.125-0.075   c-0.112,0-0.263-0.15-0.263-0.263c0-0.188,0.15-0.262,0.525-0.263c1.5,0,3.487,0.075,3.787,0.075s2.362-0.075,3.338-0.075   c0.375,0,0.563,0.075,0.563,0.262c0,0.113-0.15,0.263-0.301,0.263c-0.225,0-0.412,0-0.824,0.075   c-0.863,0.15-1.051,0.713-1.125,1.763c-0.075,1.013-0.075,1.913-0.075,6.862v4.463c0,4.612,1.013,6.525,2.438,7.8   c1.612,1.463,3.037,1.725,4.912,1.725c2.025,0,3.976-0.9,5.101-2.25c1.537-1.837,1.875-4.462,1.875-7.725v-4.013   c0-4.95-0.038-5.85-0.075-6.862s-0.225-1.612-1.313-1.763c-0.263-0.037-0.825-0.075-1.125-0.075c-0.15,0-0.263-0.15-0.263-0.263   c0-0.188,0.15-0.262,0.525-0.263c1.463,0,3.375,0.075,3.563,0.075c0.225,0,1.8-0.075,2.774-0.075c0.375,0,0.525,0.075,0.525,0.262   c0,0.113-0.112,0.263-0.263,0.263c-0.225,0-0.412,0-0.825,0.075c-0.899,0.188-1.087,0.713-1.162,1.763   c-0.075,1.013-0.037,1.913-0.037,6.862V17.4c0,3.45-0.45,7.313-3.075,9.563c-2.4,2.063-4.95,2.325-6.9,2.325   c-1.087,0-4.537-0.075-6.862-2.25c-1.612-1.5-2.888-3.712-2.888-8.362V13.987z"
       id="path11" /><path
       fill="#202E50"
       d="M109.911,13.987c0-4.95,0-5.85-0.075-6.862c-0.075-1.087-0.263-1.612-1.35-1.763   c-0.263-0.037-0.825-0.075-1.125-0.075c-0.112,0-0.263-0.15-0.263-0.263c0-0.188,0.15-0.262,0.525-0.262   c1.5,0,3.637,0.075,3.824,0.075c0.226,0,7.126,0.038,7.876,0c0.637-0.038,1.237-0.15,1.5-0.188c0.149-0.038,0.3-0.15,0.449-0.15   c0.113,0,0.15,0.15,0.15,0.3c0,0.225-0.188,0.6-0.263,1.5c-0.037,0.3-0.112,1.725-0.188,2.1c-0.037,0.15-0.149,0.337-0.3,0.337   c-0.188,0-0.263-0.15-0.263-0.412c0-0.225-0.037-0.75-0.188-1.125c-0.225-0.525-0.563-0.75-2.362-0.975   c-0.563-0.075-4.388-0.113-4.763-0.113c-0.15,0-0.188,0.113-0.188,0.338v8.662c0,0.225,0,0.338,0.188,0.338   c0.412,0,4.763,0,5.513-0.075c0.787-0.075,1.275-0.112,1.612-0.45c0.226-0.225,0.375-0.412,0.487-0.412   c0.113,0,0.188,0.075,0.188,0.262s-0.188,0.712-0.262,1.763c-0.075,0.638-0.15,1.837-0.15,2.063c0,0.263-0.075,0.6-0.3,0.6   c-0.15,0-0.226-0.113-0.226-0.3c0-0.3,0-0.637-0.149-1.05c-0.112-0.45-0.413-0.825-1.688-0.975c-0.9-0.112-4.425-0.15-4.988-0.15   c-0.188,0-0.225,0.112-0.225,0.225v2.663c0,1.087-0.037,4.8,0,5.438c0.075,2.137,0.675,2.55,3.938,2.55c0.862,0,2.438,0,3.3-0.337   c0.863-0.375,1.313-0.938,1.5-2.212c0.075-0.375,0.15-0.488,0.338-0.488s0.225,0.263,0.225,0.488s-0.262,2.4-0.449,3.075   c-0.226,0.825-0.563,0.825-1.838,0.825c-2.475,0-4.388-0.075-5.737-0.112c-1.388-0.075-2.25-0.075-2.738-0.075   c-0.074,0-0.712,0-1.425,0.038c-0.638,0.038-1.388,0.075-1.912,0.075c-0.338,0-0.525-0.075-0.525-0.262   c0-0.113,0.075-0.263,0.263-0.263c0.3,0,0.713-0.112,1.013-0.15c0.638-0.112,0.712-0.75,0.862-1.688   c0.188-1.313,0.188-3.825,0.188-6.9V13.987z"
       id="path13" /><path
       fill="#202E50"
       d="M133.573,19.688c0,4.688,0.075,6.6,0.675,7.163c0.525,0.525,1.801,0.75,4.388,0.75   c1.726,0,3.188-0.038,3.976-0.975c0.412-0.487,0.675-1.162,0.787-1.8c0.037-0.225,0.15-0.413,0.338-0.413   c0.149,0,0.225,0.15,0.225,0.488c0,0.337-0.225,2.25-0.487,3.188c-0.226,0.75-0.338,0.862-2.101,0.862   c-2.362,0-4.199-0.038-5.737-0.112c-1.5-0.038-2.625-0.075-3.6-0.075c-0.15,0-0.713,0-1.351,0.038   c-0.675,0.038-1.388,0.075-1.912,0.075c-0.338,0-0.525-0.075-0.525-0.262c0-0.113,0.075-0.263,0.263-0.263   c0.3,0,0.713-0.075,1.013-0.15c0.638-0.15,0.712-0.75,0.862-1.688c0.188-1.313,0.188-3.825,0.188-6.9v-5.625   c0-4.95,0-5.85-0.075-6.862c-0.075-1.087-0.263-1.612-1.35-1.763c-0.263-0.037-0.825-0.075-1.125-0.075   c-0.112,0-0.263-0.15-0.263-0.263c0-0.188,0.15-0.262,0.525-0.263c1.5,0,3.563,0.075,3.75,0.075c0.149,0,2.625-0.075,3.638-0.075   c0.337,0,0.524,0.075,0.524,0.262c0,0.113-0.149,0.225-0.263,0.225c-0.225,0-0.712,0.038-1.087,0.075   c-0.976,0.188-1.163,0.675-1.238,1.8c-0.037,1.013-0.037,1.913-0.037,6.862V19.688z"
       id="path15" /><path
       fill="#202E50"
       d="M162.822,13.987c0-4.95,0-5.85-0.075-6.862c-0.075-1.087-0.263-1.612-1.35-1.763   c-0.263-0.037-0.825-0.075-1.125-0.075c-0.112,0-0.263-0.15-0.263-0.263c0-0.188,0.15-0.262,0.525-0.263   c1.5,0,3.637,0.075,3.824,0.075c0.375,0,2.476-0.075,4.426-0.075c3.3,0,9.337-0.3,13.237,3.637c1.65,1.65,3.225,4.313,3.225,8.1   c0,4.013-1.725,7.087-3.563,8.963c-1.425,1.462-4.387,3.675-10.012,3.675c-1.426,0-3.188-0.112-4.613-0.188   c-1.425-0.112-2.55-0.188-2.7-0.188c-0.074,0-0.675,0.038-1.35,0.038c-0.675,0.038-1.463,0.075-1.987,0.075   c-0.338,0-0.525-0.075-0.525-0.262c0-0.113,0.075-0.263,0.263-0.263c0.3,0,0.713-0.075,1.013-0.15   c0.638-0.15,0.712-0.75,0.862-1.688c0.188-1.313,0.188-3.825,0.188-6.9V13.987z M165.822,17.438c0,3.375,0,6.337,0.037,6.938   c0.038,0.788,0.113,1.95,0.375,2.288c0.413,0.6,1.575,1.275,5.476,1.275c3.037,0,5.737-1.012,7.725-2.887   c1.726-1.613,2.588-4.65,2.588-7.575c0-4.05-1.763-6.638-3.112-7.988c-3.112-3.15-6.75-3.563-10.688-3.563   c-0.638,0-1.688,0.113-1.988,0.225c-0.3,0.113-0.412,0.263-0.412,0.638V17.438z"
       id="path17" /><path
       fill="#202E50"
       d="M192.823,13.987c0-4.95,0-5.85-0.075-6.862c-0.075-1.087-0.263-1.612-1.35-1.763   c-0.263-0.037-0.825-0.075-1.125-0.075c-0.112,0-0.263-0.15-0.263-0.263c0-0.188,0.15-0.262,0.525-0.262   c1.5,0,3.637,0.075,3.824,0.075c0.226,0,7.126,0.038,7.876,0c0.637-0.038,1.237-0.15,1.5-0.188c0.149-0.038,0.3-0.15,0.449-0.15   c0.113,0,0.15,0.15,0.15,0.3c0,0.225-0.188,0.6-0.263,1.5c-0.037,0.3-0.112,1.725-0.188,2.1c-0.037,0.15-0.149,0.337-0.3,0.337   c-0.188,0-0.263-0.15-0.263-0.412c0-0.225-0.037-0.75-0.188-1.125c-0.225-0.525-0.563-0.75-2.362-0.975   c-0.563-0.075-4.388-0.113-4.763-0.113c-0.15,0-0.188,0.113-0.188,0.338v8.662c0,0.225,0,0.338,0.188,0.338   c0.412,0,4.763,0,5.513-0.075c0.787-0.075,1.275-0.112,1.612-0.45c0.226-0.225,0.375-0.412,0.487-0.412   c0.113,0,0.188,0.075,0.188,0.262s-0.188,0.712-0.262,1.763c-0.075,0.638-0.15,1.837-0.15,2.063c0,0.263-0.075,0.6-0.3,0.6   c-0.15,0-0.226-0.113-0.226-0.3c0-0.3,0-0.637-0.149-1.05c-0.112-0.45-0.413-0.825-1.688-0.975c-0.9-0.112-4.425-0.15-4.988-0.15   c-0.188,0-0.225,0.112-0.225,0.225v2.663c0,1.087-0.037,4.8,0,5.438c0.075,2.137,0.675,2.55,3.938,2.55c0.862,0,2.438,0,3.3-0.337   c0.863-0.375,1.313-0.938,1.5-2.212c0.075-0.375,0.15-0.488,0.338-0.488s0.225,0.263,0.225,0.488s-0.262,2.4-0.449,3.075   c-0.226,0.825-0.563,0.825-1.838,0.825c-2.475,0-4.388-0.075-5.737-0.112c-1.388-0.075-2.25-0.075-2.738-0.075   c-0.074,0-0.712,0-1.425,0.038c-0.638,0.038-1.388,0.075-1.912,0.075c-0.338,0-0.525-0.075-0.525-0.262   c0-0.113,0.075-0.263,0.263-0.263c0.3,0,0.713-0.112,1.013-0.15c0.638-0.112,0.712-0.75,0.862-1.688   c0.188-1.313,0.188-3.825,0.188-6.9V13.987z"
       id="path19" /><path
       fill="#202E50"
       d="M229.686,20.4c0,6.075,0,8.4-1.125,11.063c-0.788,1.875-2.438,3.638-5.476,5.737   c-0.487,0.338-1.087,0.75-1.462,0.938c-0.075,0.037-0.15,0.075-0.263,0.075s-0.263-0.075-0.263-0.226   c0-0.225,0.188-0.337,0.525-0.563c0.45-0.262,0.975-0.712,1.313-1.05c2.438-2.475,3.6-4.462,3.6-14.137V11.4   c0-5.85,0-6.9-0.075-8.1c-0.074-1.275-0.375-1.875-1.612-2.137c-0.3-0.075-0.938-0.113-1.274-0.113   c-0.15,0-0.301-0.075-0.301-0.225c0-0.225,0.188-0.3,0.601-0.3c1.688,0,4.05,0.112,4.237,0.112s2.55-0.112,3.675-0.112   c0.413,0,0.601,0.075,0.601,0.3c0,0.15-0.15,0.225-0.3,0.225c-0.263,0-0.488,0.038-0.938,0.113   c-1.013,0.188-1.313,0.825-1.388,2.137c-0.075,1.2-0.075,2.25-0.075,8.1V20.4z"
       id="path21" /><path
       fill="#202E50"
       d="M250.123,4.313c7.425,0,13.05,4.538,13.05,11.962c0,7.125-5.287,13.013-13.237,13.013   c-9.038,0-12.9-6.788-12.9-12.525C237.035,11.625,241.01,4.313,250.123,4.313z M250.873,27.975c2.962,0,8.925-1.575,8.925-10.8   c0-7.65-4.65-11.663-9.862-11.663c-5.513,0-9.488,3.45-9.488,10.387C240.447,23.325,244.91,27.975,250.873,27.975z"
       id="path23" /><path
       fill="#202E50"
       d="M271.46,24.525c0.075,2.625,0.375,3.412,1.274,3.637c0.601,0.15,1.351,0.188,1.65,0.188   c0.15,0,0.263,0.113,0.263,0.263c0,0.188-0.226,0.262-0.6,0.262c-1.875,0-3.188-0.112-3.488-0.112s-1.688,0.112-3.188,0.112   c-0.337,0-0.524-0.037-0.524-0.262c0-0.15,0.112-0.263,0.262-0.263c0.263,0,0.863-0.038,1.351-0.188   c0.825-0.225,0.938-1.087,0.938-3.975V5.925c0-1.275,0.188-1.612,0.45-1.612c0.375,0,0.938,0.638,1.274,0.975   c0.525,0.525,5.325,5.625,10.426,10.875c3.262,3.375,6.787,7.163,7.8,8.212L289.01,8.4c-0.037-2.063-0.225-2.775-1.237-2.962   c-0.6-0.112-1.35-0.15-1.612-0.15c-0.226,0-0.263-0.188-0.263-0.3c0-0.188,0.263-0.225,0.638-0.225c1.5,0,3.075,0.075,3.45,0.075   s1.462-0.075,2.813-0.075c0.337,0,0.6,0.037,0.6,0.225c0,0.113-0.149,0.3-0.375,0.3c-0.15,0-0.412,0-0.787,0.075   c-1.088,0.225-1.163,0.863-1.163,2.775l-0.075,18.675c0,2.1-0.037,2.288-0.262,2.288c-0.338,0-0.676-0.262-2.513-1.95   c-0.338-0.3-5.101-4.988-8.588-8.625c-3.825-4.012-7.537-7.913-8.55-9.038L271.46,24.525z"
       id="path25" /><path
       fill="#202E50"
       d="M316.311,20.738c0-2.588-0.075-2.963-1.425-3.225c-0.263-0.038-0.825-0.075-1.125-0.075   c-0.113,0-0.263-0.15-0.263-0.262c0-0.225,0.149-0.263,0.524-0.263c1.501,0,3.713,0.075,3.9,0.075c0.15,0,2.213-0.075,3.225-0.075   c0.375,0,0.525,0.038,0.525,0.263c0,0.112-0.15,0.262-0.263,0.262c-0.225,0-0.45,0-0.825,0.075   c-0.899,0.15-1.162,0.637-1.237,1.762c-0.037,1.013-0.037,1.95-0.037,3.3v3.563c0,1.462-0.038,1.5-0.45,1.725   c-2.1,1.087-5.1,1.425-7.013,1.425c-2.513,0-7.2-0.3-10.875-3.413c-2.025-1.688-3.938-5.1-3.938-9.075   c0-5.1,2.588-8.7,5.513-10.463c2.962-1.8,6.263-2.025,8.775-2.025c2.1,0,4.425,0.375,5.063,0.525   c0.675,0.15,1.837,0.337,2.662,0.337c0.338,0,0.412,0.15,0.412,0.3c0,0.45-0.188,1.313-0.188,4.5c0,0.525-0.149,0.675-0.375,0.675   c-0.188,0-0.225-0.188-0.225-0.487c-0.037-0.413-0.225-1.35-0.75-2.1c-0.825-1.2-3.338-2.475-7.612-2.475   c-1.987,0-4.388,0.15-6.9,2.063c-1.912,1.462-3.263,4.313-3.263,8.025c0,4.5,2.325,7.725,3.487,8.813   c2.626,2.438,5.4,3.337,8.438,3.337c1.162,0,2.699-0.112,3.563-0.6c0.412-0.225,0.675-0.375,0.675-0.975V20.738z"
       id="path27" /></g><g
     id="g3237"><path
       d="m 170.067,55.712 c 0.267,-0.083 1.267,-0.383 2.217,-0.483 v 3.367 c 0,1.867 0.017,2.833 0.033,3.3 l 1.184,0.5 -0.117,0.383 c -0.583,0 -1.216,-0.017 -1.866,-0.017 -0.533,0 -1.083,0.017 -1.733,0.017 l 0.116,-0.383 0.95,-0.5 c 0.017,-0.567 0.033,-2 0.033,-3.333 v -2.1 l -0.899,-0.433 0.082,-0.318 z m 1.567,-3.933 c 0.233,0.083 0.684,0.583 0.834,0.933 l -0.033,0.133 c -0.15,0.317 -0.65,0.817 -0.884,0.95 l -0.134,0.033 c -0.283,-0.167 -0.666,-0.633 -0.816,-0.95 l 0.033,-0.133 c 0.233,-0.384 0.617,-0.784 0.9,-0.95 l 0.1,-0.016 z"
       id="path61"
       inkscape:connector-curvature="0"
       style="fill:#202e50" /><path
       d="m 177.034,56.579 -0.883,-0.383 0.116,-0.35 c 0.267,-0.15 1.634,-0.6 2.167,-0.616 l -0.1,1.316 h 0.033 c 1.267,-1.033 1.967,-1.316 2.633,-1.316 1.733,0 2.25,1.417 2.25,2.65 v 3.783 c 0,0.167 0.084,0.25 0.233,0.317 l 0.983,0.417 -0.116,0.383 c -0.45,0 -1.217,-0.017 -1.867,-0.017 -0.467,0 -0.967,0.017 -1.483,0.017 l 0.117,-0.417 0.666,-0.483 c 0.034,-0.5 0.067,-1.684 0.067,-3.867 0,-1.267 -0.717,-1.783 -1.567,-1.783 -0.699,0 -1.449,0.5 -1.85,0.917 0,1.267 0,4.45 0.033,4.8 l 0.934,0.434 -0.1,0.4 c -0.434,-0.017 -1.067,-0.017 -1.601,-0.017 -0.583,0 -1.217,0.017 -1.75,0.017 l 0.117,-0.383 0.916,-0.467 c 0.033,-0.267 0.05,-1.783 0.05,-3.883 v -1.469 z"
       id="path63"
       inkscape:connector-curvature="0"
       style="fill:#202e50" /><path
       d="m 194.117,58.879 c -0.017,0.083 -0.017,0.15 -0.017,0.233 0,1.883 1.166,3 2.666,3 0.233,0 0.417,-0.034 0.567,-0.1 0.533,-0.383 1.033,-0.717 1.399,-0.9 l 0.083,0.267 c -0.1,0.367 -0.732,1.05 -0.949,1.2 -0.317,0.15 -1.167,0.4 -1.75,0.4 -2.067,0 -3.534,-1.434 -3.534,-3.733 0,-2.383 1.717,-4.017 3.617,-4.017 1.517,0 2.816,1.017 2.816,2.883 0,0.2 -0.05,0.45 -0.166,0.533 -0.167,0.066 -0.801,0.233 -1.567,0.233 h -3.165 z m 3.333,-0.633 c 0.05,-0.117 0.083,-0.317 0.083,-0.5 0,-1 -0.5,-1.934 -1.467,-1.934 -1.383,0 -1.933,1.717 -1.933,2.434 h 3.317 z"
       id="path65"
       inkscape:connector-curvature="0"
       style="fill:#202e50" /><path
       d="m 205.334,57.962 h 0.033 c 0.384,-0.633 0.65,-1.05 0.917,-1.583 0.133,-0.367 0.133,-0.617 0.133,-0.95 0.317,0.017 0.634,0.033 0.934,0.033 0.517,0 1.033,-0.017 1.533,-0.033 l -0.116,0.4 c -1,0.333 -1.333,0.5 -1.7,0.784 -0.366,0.483 -0.717,0.9 -1.4,1.917 0.483,0.917 1.45,2.483 1.733,2.917 0.184,0.284 0.384,0.45 0.634,0.517 l 1.184,0.4 -0.15,0.4 c -0.45,0 -1.717,0.083 -2.6,0.083 -0.434,-0.867 -0.7,-1.4 -1.65,-3.034 h -0.033 c -0.733,1.184 -0.934,1.517 -1.2,2.067 0.033,0.133 0.134,0.267 0.434,0.533 l -0.117,0.367 c -0.35,0 -0.833,-0.033 -1.25,-0.033 -0.533,0 -1.05,0.033 -1.467,0.033 l 0.101,-0.383 0.917,-0.417 c 0.283,-0.133 0.5,-0.284 0.683,-0.534 0.434,-0.6 0.767,-1 1.601,-2.25 -1.051,-1.833 -1.4,-2.45 -1.65,-2.767 -0.2,-0.167 -0.55,-0.333 -1.45,-0.6 l 0.15,-0.4 c 0.467,0.017 0.983,0.033 1.483,0.033 0.416,0 0.783,-0.017 1.283,-0.033 l -0.066,0.633 1.096,1.9 z"
       id="path67"
       inkscape:connector-curvature="0"
       style="fill:#202e50" /><path
       d="m 213.583,56.279 0.033,0.017 c 1.051,-0.733 1.768,-1.066 2.268,-1.066 1.383,0 3.216,1.167 3.216,3.55 0,2.95 -2.483,4.2 -4.033,4.2 -0.316,0 -1,-0.267 -1.383,-0.517 l -0.033,0.017 c 0,1.216 0.033,2.333 0.066,3.15 l 1.55,0.517 -0.15,0.383 c -0.75,0 -1.416,-0.017 -2.183,-0.017 -0.567,0 -1.167,0.017 -1.75,0.017 l 0.149,-0.417 0.851,-0.433 c 0.017,-0.567 0.066,-2.15 0.066,-4.583 V 56.48 l -0.934,-0.5 0.15,-0.333 c 0.267,-0.133 1.6,-0.434 2.184,-0.45 l -0.067,1.082 z m 0.067,5.55 c 0.3,0.184 0.767,0.35 1.25,0.35 1.399,0 2.683,-1.2 2.683,-3.133 0,-1.517 -0.916,-2.833 -2.383,-2.833 -0.417,0 -0.95,0.184 -1.55,0.617 v 4.999 z"
       id="path69"
       inkscape:connector-curvature="0"
       style="fill:#202e50" /><path
       d="m 223.767,58.879 c -0.017,0.083 -0.017,0.15 -0.017,0.233 0,1.883 1.166,3 2.666,3 0.233,0 0.417,-0.034 0.567,-0.1 0.533,-0.383 1.033,-0.717 1.399,-0.9 l 0.083,0.267 c -0.1,0.367 -0.732,1.05 -0.949,1.2 -0.317,0.15 -1.167,0.4 -1.75,0.4 -2.067,0 -3.534,-1.434 -3.534,-3.733 0,-2.383 1.717,-4.017 3.617,-4.017 1.517,0 2.816,1.017 2.816,2.883 0,0.2 -0.05,0.45 -0.166,0.533 -0.167,0.066 -0.801,0.233 -1.567,0.233 h -3.165 z m 3.333,-0.633 c 0.05,-0.117 0.083,-0.317 0.083,-0.5 0,-1 -0.5,-1.934 -1.467,-1.934 -1.383,0 -1.933,1.717 -1.933,2.434 h 3.317 z"
       id="path71"
       inkscape:connector-curvature="0"
       style="fill:#202e50" /><path
       d="m 231.716,55.796 c 0.25,-0.133 1.417,-0.533 1.917,-0.566 0.101,0.383 0.184,1.116 0.167,1.633 h 0.033 c 0.684,-1.184 1.667,-1.633 2.316,-1.633 0.334,0 0.65,0.1 0.817,0.283 -0.051,0.467 -0.334,1.4 -0.551,1.816 l -0.199,0.117 c -0.167,-0.233 -0.367,-0.566 -0.601,-1.117 -0.066,-0.033 -0.133,-0.05 -0.25,-0.05 -0.5,0 -1.2,0.633 -1.517,1.433 v 4.217 l 1.684,0.483 -0.084,0.367 c -0.633,0 -1.466,-0.017 -2.366,-0.017 -0.533,0 -1.233,0.017 -1.733,0.017 l 0.083,-0.367 0.95,-0.5 c 0.066,-1.733 0.066,-4.483 0.066,-5.3 l -0.866,-0.483 0.134,-0.333 z"
       id="path73"
       inkscape:connector-curvature="0"
       style="fill:#202e50" /><path
       d="m 239.8,55.712 c 0.267,-0.083 1.267,-0.383 2.217,-0.483 v 3.367 c 0,1.867 0.017,2.833 0.033,3.3 l 1.184,0.5 -0.117,0.383 c -0.583,0 -1.216,-0.017 -1.866,-0.017 -0.533,0 -1.083,0.017 -1.733,0.017 l 0.116,-0.383 0.95,-0.5 c 0.017,-0.567 0.033,-2 0.033,-3.333 v -2.1 l -0.899,-0.433 0.082,-0.318 z m 1.566,-3.933 c 0.233,0.083 0.684,0.583 0.834,0.933 l -0.033,0.133 c -0.15,0.317 -0.65,0.817 -0.884,0.95 l -0.134,0.033 c -0.283,-0.167 -0.666,-0.633 -0.816,-0.95 l 0.033,-0.133 c 0.233,-0.384 0.617,-0.784 0.9,-0.95 l 0.1,-0.016 z"
       id="path75"
       inkscape:connector-curvature="0"
       style="fill:#202e50" /><path
       d="m 246.766,56.546 -0.883,-0.367 0.116,-0.333 c 0.351,-0.167 1.65,-0.6 2.167,-0.616 l -0.083,1.35 h 0.033 c 1.033,-0.85 1.85,-1.35 2.6,-1.35 0.884,0 1.667,0.517 1.983,1.366 1.167,-0.966 1.95,-1.366 2.75,-1.366 1.384,0 2.25,1.05 2.25,2.5 v 3.966 c 0,0.15 0.117,0.233 0.317,0.333 l 0.883,0.383 -0.083,0.367 c -0.566,0 -1.184,-0.017 -1.8,-0.017 -0.518,0 -1.051,0.017 -1.617,0.017 l 0.1,-0.383 0.733,-0.5 c 0.034,-0.6 0.084,-1.733 0.067,-3.617 0,-0.95 -0.233,-2.05 -1.551,-2.05 -0.6,0 -1.233,0.316 -1.916,0.933 0.05,0.317 0.1,0.817 0.1,1.383 v 3.35 l 0.983,0.5 -0.116,0.383 c -0.467,0 -1.034,-0.017 -1.567,-0.017 -0.533,0 -1.083,0.017 -1.633,0.017 l 0.1,-0.4 0.8,-0.467 c 0.017,-1 0.034,-2.3 0.034,-3.767 0,-0.85 -0.233,-1.9 -1.601,-1.9 -0.533,0 -1.217,0.417 -1.767,0.917 0,1.95 0,4.233 0.033,4.75 l 1,0.467 -0.1,0.4 c -0.417,0 -1.033,-0.017 -1.7,-0.017 -0.533,0 -1.167,0.017 -1.684,0.017 l 0.101,-0.4 0.916,-0.467 c 0.017,-0.333 0.033,-1.783 0.033,-3.383 v -1.982 z"
       id="path77"
       inkscape:connector-curvature="0"
       style="fill:#202e50" /><path
       d="m 262.983,58.879 c -0.017,0.083 -0.017,0.15 -0.017,0.233 0,1.883 1.166,3 2.666,3 0.233,0 0.417,-0.034 0.567,-0.1 0.533,-0.383 1.033,-0.717 1.399,-0.9 l 0.083,0.267 c -0.1,0.367 -0.732,1.05 -0.949,1.2 -0.317,0.15 -1.167,0.4 -1.75,0.4 -2.067,0 -3.534,-1.434 -3.534,-3.733 0,-2.383 1.717,-4.017 3.617,-4.017 1.517,0 2.816,1.017 2.816,2.883 0,0.2 -0.05,0.45 -0.166,0.533 -0.167,0.066 -0.801,0.233 -1.567,0.233 h -3.165 z m 3.333,-0.633 c 0.05,-0.117 0.083,-0.317 0.083,-0.5 0,-1 -0.5,-1.934 -1.467,-1.934 -1.383,0 -1.933,1.717 -1.933,2.434 h 3.317 z"
       id="path79"
       inkscape:connector-curvature="0"
       style="fill:#202e50" /><path
       d="m 271.666,56.579 -0.883,-0.383 0.116,-0.35 c 0.267,-0.15 1.634,-0.6 2.167,-0.616 l -0.1,1.316 H 273 c 1.267,-1.033 1.967,-1.316 2.633,-1.316 1.733,0 2.25,1.417 2.25,2.65 v 3.783 c 0,0.167 0.084,0.25 0.233,0.317 l 0.983,0.417 -0.116,0.383 c -0.45,0 -1.217,-0.017 -1.867,-0.017 -0.467,0 -0.967,0.017 -1.483,0.017 l 0.117,-0.417 0.666,-0.483 c 0.034,-0.5 0.067,-1.684 0.067,-3.867 0,-1.267 -0.717,-1.783 -1.567,-1.783 -0.699,0 -1.449,0.5 -1.85,0.917 0,1.267 0,4.45 0.033,4.8 l 0.934,0.434 -0.1,0.4 c -0.434,-0.017 -1.067,-0.017 -1.601,-0.017 -0.583,0 -1.217,0.017 -1.75,0.017 l 0.117,-0.383 0.916,-0.467 c 0.033,-0.267 0.05,-1.783 0.05,-3.883 v -1.469 z"
       id="path81"
       inkscape:connector-curvature="0"
       style="fill:#202e50" /><path
       d="m 286.25,55.446 -0.317,0.6 -2.233,0.2 c 0,0.783 -0.017,2.683 -0.017,4.683 0,0.417 0.167,0.667 0.267,0.784 0.184,0.133 0.434,0.25 0.834,0.25 0.616,0 1.083,-0.2 1.35,-0.4 l 0.066,0.034 -0.017,0.517 c -0.416,0.5 -1.066,0.867 -1.933,0.867 -0.65,0 -1.217,-0.267 -1.601,-0.7 -0.267,-0.367 -0.383,-0.717 -0.383,-1.8 v -4.233 l -1.117,-0.217 0.283,-0.583 h 0.867 c 0.066,-0.466 0.25,-1.35 0.45,-1.917 0.216,-0.267 0.783,-0.5 1,-0.5 l -0.051,2.417 h 2.552 z"
       id="path83"
       inkscape:connector-curvature="0"
       style="fill:#202e50" /><path
       d="m 292.916,58.113 c -0.017,-1.733 -0.767,-2.083 -1.65,-2.083 -0.316,0 -0.733,0.133 -1.017,0.3 -0.033,0.483 -0.1,1.233 -0.199,1.684 l -0.184,0.083 c -0.184,-0.1 -0.884,-0.967 -1.05,-1.434 0.333,-0.317 1.333,-0.883 2.017,-1.15 0.399,-0.15 0.783,-0.283 1.166,-0.283 1.717,0 2.284,1.483 2.284,2.55 0,1.133 -0.034,2.583 -0.034,3.717 0.367,0.6 0.983,0.867 1.301,0.967 l -0.117,0.267 c -0.133,0.083 -0.417,0.216 -0.833,0.216 -1.117,0 -1.5,-0.517 -1.65,-0.95 h -0.033 c -0.717,0.7 -1.483,0.983 -2.017,0.983 -1.467,0 -2.1,-1.133 -2.1,-1.95 0,-0.7 0.3,-1.167 0.666,-1.35 0.601,-0.367 2.15,-0.9 3.45,-1.2 v -0.367 z m -2.667,2.616 c 0,0.983 0.817,1.3 1.351,1.3 0.35,0 0.8,-0.167 1.133,-0.517 0.101,-0.117 0.15,-0.233 0.15,-0.383 l 0.033,-2.117 c -0.733,0.2 -1.633,0.517 -2.083,0.783 -0.434,0.233 -0.584,0.45 -0.584,0.917 v 0.017 z"
       id="path85"
       inkscape:connector-curvature="0"
       style="fill:#202e50" /><path
       d="m 301.516,62.379 -0.149,0.4 c -0.634,0 -1.184,-0.017 -1.767,-0.017 -0.617,0 -1.25,0.017 -1.867,0.017 l 0.084,-0.367 1.05,-0.483 c 0.017,-0.683 0.033,-1.716 0.033,-5.783 0,-1.5 0,-3.167 -0.05,-3.983 l -0.967,-0.4 0.167,-0.35 c 0.55,-0.184 1.583,-0.4 2.3,-0.483 -0.033,1.717 -0.05,3.333 -0.05,5.15 0,3.35 0.017,4.617 0.033,5.85 l 1.183,0.449 z"
       id="path87"
       inkscape:connector-curvature="0"
       style="fill:#202e50" /><path
       d="m 311.832,56.279 0.033,0.017 c 1.051,-0.733 1.768,-1.066 2.268,-1.066 1.383,0 3.216,1.167 3.216,3.55 0,2.95 -2.483,4.2 -4.033,4.2 -0.316,0 -1,-0.267 -1.383,-0.517 L 311.9,62.48 c 0,1.216 0.033,2.333 0.066,3.15 l 1.55,0.517 -0.15,0.383 c -0.75,0 -1.416,-0.017 -2.183,-0.017 -0.567,0 -1.167,0.017 -1.75,0.017 l 0.149,-0.417 0.851,-0.433 c 0.017,-0.567 0.066,-2.15 0.066,-4.583 V 56.48 l -0.934,-0.5 0.15,-0.333 c 0.267,-0.133 1.6,-0.434 2.184,-0.45 l -0.067,1.082 z m 0.067,5.55 c 0.3,0.184 0.767,0.35 1.25,0.35 1.399,0 2.683,-1.2 2.683,-3.133 0,-1.517 -0.916,-2.833 -2.383,-2.833 -0.417,0 -0.95,0.184 -1.55,0.617 v 4.999 z"
       id="path89"
       inkscape:connector-curvature="0"
       style="fill:#202e50" /><path
       d="m 324.498,58.113 c -0.017,-1.733 -0.767,-2.083 -1.65,-2.083 -0.316,0 -0.733,0.133 -1.017,0.3 -0.033,0.483 -0.1,1.233 -0.199,1.684 l -0.184,0.083 c -0.184,-0.1 -0.884,-0.967 -1.05,-1.434 0.333,-0.317 1.333,-0.883 2.017,-1.15 0.399,-0.15 0.783,-0.283 1.166,-0.283 1.717,0 2.284,1.483 2.284,2.55 0,1.133 -0.034,2.583 -0.034,3.717 0.367,0.6 0.983,0.867 1.301,0.967 l -0.117,0.267 c -0.133,0.083 -0.417,0.216 -0.833,0.216 -1.117,0 -1.5,-0.517 -1.65,-0.95 h -0.033 c -0.717,0.7 -1.483,0.983 -2.017,0.983 -1.467,0 -2.1,-1.133 -2.1,-1.95 0,-0.7 0.3,-1.167 0.666,-1.35 0.601,-0.367 2.15,-0.9 3.45,-1.2 v -0.367 z m -2.667,2.616 c 0,0.983 0.817,1.3 1.351,1.3 0.35,0 0.8,-0.167 1.133,-0.517 0.101,-0.117 0.15,-0.233 0.15,-0.383 l 0.033,-2.117 c -0.733,0.2 -1.633,0.517 -2.083,0.783 -0.434,0.233 -0.584,0.45 -0.584,0.917 v 0.017 z"
       id="path91"
       inkscape:connector-curvature="0"
       style="fill:#202e50" /><path
       d="m 329.864,55.796 c 0.25,-0.133 1.417,-0.533 1.917,-0.566 0.101,0.383 0.184,1.116 0.167,1.633 h 0.033 c 0.684,-1.184 1.667,-1.633 2.316,-1.633 0.334,0 0.65,0.1 0.817,0.283 -0.051,0.467 -0.334,1.4 -0.551,1.816 l -0.199,0.117 c -0.167,-0.233 -0.367,-0.566 -0.601,-1.117 -0.066,-0.033 -0.133,-0.05 -0.25,-0.05 -0.5,0 -1.2,0.633 -1.517,1.433 v 4.217 l 1.684,0.483 -0.084,0.367 c -0.633,0 -1.466,-0.017 -2.366,-0.017 -0.533,0 -1.233,0.017 -1.733,0.017 l 0.083,-0.367 0.95,-0.5 c 0.066,-1.733 0.066,-4.483 0.066,-5.3 l -0.866,-0.483 0.134,-0.333 z"
       id="path93"
       inkscape:connector-curvature="0"
       style="fill:#202e50" /><path
       d="m 342.632,55.446 -0.317,0.6 -2.233,0.2 c 0,0.783 -0.017,2.683 -0.017,4.683 0,0.417 0.167,0.667 0.267,0.784 0.184,0.133 0.434,0.25 0.834,0.25 0.616,0 1.083,-0.2 1.35,-0.4 l 0.066,0.034 -0.017,0.517 c -0.416,0.5 -1.066,0.867 -1.933,0.867 -0.65,0 -1.217,-0.267 -1.601,-0.7 -0.267,-0.367 -0.383,-0.717 -0.383,-1.8 v -4.233 l -1.117,-0.217 0.283,-0.583 h 0.867 c 0.066,-0.466 0.25,-1.35 0.45,-1.917 0.216,-0.267 0.783,-0.5 1,-0.5 l -0.051,2.417 h 2.552 z"
       id="path95"
       inkscape:connector-curvature="0"
       style="fill:#202e50" /><path
       d="m 345.214,55.712 c 0.267,-0.083 1.267,-0.383 2.217,-0.483 v 3.367 c 0,1.867 0.017,2.833 0.033,3.3 l 1.184,0.5 -0.117,0.383 c -0.583,0 -1.216,-0.017 -1.866,-0.017 -0.533,0 -1.083,0.017 -1.733,0.017 l 0.116,-0.383 0.95,-0.5 c 0.017,-0.567 0.033,-2 0.033,-3.333 v -2.1 l -0.899,-0.433 0.082,-0.318 z m 1.566,-3.933 c 0.233,0.083 0.684,0.583 0.834,0.933 l -0.033,0.133 c -0.15,0.317 -0.65,0.817 -0.884,0.95 l -0.134,0.033 c -0.283,-0.167 -0.666,-0.633 -0.816,-0.95 l 0.033,-0.133 c 0.233,-0.384 0.617,-0.784 0.9,-0.95 l 0.1,-0.016 z"
       id="path97"
       inkscape:connector-curvature="0"
       style="fill:#202e50" /><path
       d="m 351.197,59.196 c 0,-2.733 2.317,-3.966 4.284,-3.966 0.967,0 1.866,0.366 2.116,0.616 -0.1,0.434 -0.333,1.25 -0.616,1.784 l -0.25,0.1 c -0.134,-0.317 -0.351,-1 -0.533,-1.784 -0.101,-0.066 -0.301,-0.117 -0.634,-0.117 -1.85,0 -2.816,1.534 -2.816,3.167 0,1.85 1.166,3.167 2.967,3.167 0.133,0 0.35,-0.083 0.466,-0.133 0.584,-0.483 1.101,-0.816 1.384,-0.95 l 0.116,0.233 c -0.149,0.45 -0.767,1.2 -1.066,1.4 -0.25,0.1 -1.033,0.267 -1.566,0.267 -1.566,0 -3.851,-0.934 -3.851,-3.767 v -0.017 z"
       id="path99"
       inkscape:connector-curvature="0"
       style="fill:#202e50" /><path
       d="m 363.813,62.379 -0.149,0.4 c -0.634,0 -1.184,-0.017 -1.767,-0.017 -0.617,0 -1.25,0.017 -1.867,0.017 l 0.084,-0.367 1.05,-0.483 c 0.017,-0.683 0.033,-1.716 0.033,-5.783 0,-1.5 0,-3.167 -0.05,-3.983 l -0.967,-0.4 0.167,-0.35 c 0.55,-0.184 1.583,-0.4 2.3,-0.483 -0.033,1.717 -0.05,3.333 -0.05,5.15 0,3.35 0.017,4.617 0.033,5.85 l 1.183,0.449 z"
       id="path101"
       inkscape:connector-curvature="0"
       style="fill:#202e50" /><path
       d="m 367.881,58.879 c -0.017,0.083 -0.017,0.15 -0.017,0.233 0,1.883 1.166,3 2.666,3 0.233,0 0.417,-0.034 0.567,-0.1 0.533,-0.383 1.033,-0.717 1.399,-0.9 l 0.083,0.267 c -0.1,0.367 -0.732,1.05 -0.949,1.2 -0.317,0.15 -1.167,0.4 -1.75,0.4 -2.067,0 -3.534,-1.434 -3.534,-3.733 0,-2.383 1.717,-4.017 3.617,-4.017 1.517,0 2.816,1.017 2.816,2.883 0,0.2 -0.05,0.45 -0.166,0.533 -0.167,0.066 -0.801,0.233 -1.567,0.233 h -3.165 z m 3.333,-0.633 c 0.05,-0.117 0.083,-0.317 0.083,-0.5 0,-1 -0.5,-1.934 -1.467,-1.934 -1.383,0 -1.933,1.717 -1.933,2.434 h 3.317 z"
       id="path103"
       inkscape:connector-curvature="0"
       style="fill:#202e50" /><g
       id="g3212"><path
         style="fill:#202e50"
         inkscape:connector-curvature="0"
         id="path105"
         d="m 383.363,56.279 0.033,0.017 c 1.051,-0.733 1.768,-1.066 2.268,-1.066 1.383,0 3.216,1.167 3.216,3.55 0,2.95 -2.483,4.2 -4.033,4.2 -0.316,0 -1,-0.267 -1.383,-0.517 l -0.033,0.017 c 0,1.216 0.033,2.333 0.066,3.15 l 1.55,0.517 -0.15,0.383 c -0.75,0 -1.416,-0.017 -2.183,-0.017 -0.567,0 -1.167,0.017 -1.75,0.017 l 0.149,-0.417 0.851,-0.433 c 0.017,-0.567 0.066,-2.15 0.066,-4.583 V 56.48 l -0.934,-0.5 0.15,-0.333 c 0.267,-0.133 1.6,-0.434 2.184,-0.45 l -0.067,1.082 z m 0.068,5.55 c 0.3,0.184 0.767,0.35 1.25,0.35 1.399,0 2.683,-1.2 2.683,-3.133 0,-1.517 -0.916,-2.833 -2.383,-2.833 -0.417,0 -0.95,0.184 -1.55,0.617 v 4.999 z" /><path
         style="fill:#202e50"
         inkscape:connector-curvature="0"
         id="path107"
         d="m 398.896,61.546 c 0,0.3 0.083,0.367 0.333,0.467 l 0.884,0.433 -0.117,0.367 c -0.699,0.017 -1.717,-0.017 -2.649,-0.133 0.083,-0.7 0.149,-1.783 0.149,-4.25 0,-1.9 -1,-2.233 -1.8,-2.233 -0.616,0 -1.149,0.217 -1.633,0.6 0,1.633 0,4.8 0.05,5.1 l 1.2,0.517 -0.134,0.367 c -0.616,0 -1.2,-0.033 -1.833,-0.033 -0.584,0 -1.167,0.033 -1.75,0.033 l 0.116,-0.383 0.9,-0.5 c 0.033,-0.217 0.05,-1.683 0.05,-3.867 0,-2.1 0,-4 -0.05,-5.817 l -0.967,-0.433 0.1,-0.317 c 0.483,-0.167 1.3,-0.35 2.367,-0.533 -0.033,1.6 -0.05,3.483 -0.05,5.283 l 0.033,0.017 c 1.066,-0.833 1.733,-1 2.316,-1 1.7,0 2.483,1.4 2.483,2.517 v 3.798 z" /></g><path
       d="m 407.13,55.429 c 0.334,0 0.783,0.017 1.134,0.017 0.5,0 1,-0.017 1.416,-0.017 l -0.1,0.383 c -0.5,0.233 -0.783,0.45 -1.017,0.7 -0.634,1.367 -1.967,4.717 -3.517,8.384 -0.15,0.633 -0.283,1.316 -0.434,1.883 -0.083,0.05 -0.217,0.066 -0.383,0.066 -0.5,0 -1.067,-0.333 -1.2,-0.533 0.133,-0.3 0.866,-1.184 1.45,-1.85 0.217,-0.434 0.6,-1.267 0.85,-1.833 -0.167,-0.317 -1.717,-4.517 -2.384,-6.083 -0.232,-0.333 -0.433,-0.467 -1.166,-0.733 l 0.149,-0.383 c 0.517,0.017 1.034,0.017 1.567,0.017 0.517,0 1.05,0 1.583,-0.017 l -0.116,0.4 -0.534,0.417 c 0.2,0.633 0.75,2.117 1.65,4.583 h 0.033 c 0.65,-1.683 1.367,-3.633 1.65,-4.566 l -0.767,-0.434 0.136,-0.401 z"
       id="path109"
       inkscape:connector-curvature="0"
       style="fill:#202e50" /><path
       d="m 414.529,55.229 c 0.367,0 0.834,0.133 1.233,0.4 0.267,-0.184 0.584,-0.333 0.867,-0.434 l 0.133,0.117 c 0,0.3 -0.233,1.633 -0.399,2.017 l -0.233,0.1 c -0.184,-0.333 -0.417,-0.867 -0.584,-1.283 -0.1,-0.083 -0.399,-0.283 -0.983,-0.283 -0.833,0 -1.267,0.55 -1.267,1.15 0,0.4 0.15,0.65 0.601,0.917 0.517,0.283 1.434,0.667 2,0.95 0.916,0.45 1.267,1.066 1.267,1.767 0,1.817 -1.9,2.333 -2.934,2.333 -0.883,0 -1.833,-0.317 -2.417,-0.717 0,-0.317 0.284,-1.583 0.384,-1.817 l 0.233,-0.133 c 0.233,0.434 0.6,1.45 0.783,1.9 0.25,0.1 0.617,0.167 1.017,0.167 0.884,0 1.55,-0.533 1.55,-1.217 0,-0.45 -0.149,-0.75 -0.666,-1 -0.45,-0.25 -1,-0.5 -1.617,-0.8 -0.917,-0.417 -1.467,-1.034 -1.467,-1.967 0,-1.05 0.817,-2.167 2.483,-2.167 h 0.016 z"
       id="path111"
       inkscape:connector-curvature="0"
       style="fill:#202e50" /><path
       d="m 420.112,55.712 c 0.267,-0.083 1.267,-0.383 2.217,-0.483 v 3.367 c 0,1.867 0.017,2.833 0.033,3.3 l 1.184,0.5 -0.117,0.383 c -0.583,0 -1.216,-0.017 -1.866,-0.017 -0.533,0 -1.083,0.017 -1.733,0.017 l 0.116,-0.383 0.95,-0.5 c 0.017,-0.567 0.033,-2 0.033,-3.333 v -2.1 l -0.899,-0.433 0.082,-0.318 z m 1.567,-3.933 c 0.233,0.083 0.684,0.583 0.834,0.933 l -0.033,0.133 c -0.15,0.317 -0.65,0.817 -0.884,0.95 l -0.134,0.033 c -0.283,-0.167 -0.666,-0.633 -0.816,-0.95 l 0.033,-0.133 c 0.233,-0.384 0.617,-0.784 0.9,-0.95 l 0.1,-0.016 z"
       id="path113"
       inkscape:connector-curvature="0"
       style="fill:#202e50" /><path
       d="m 426.096,59.196 c 0,-2.733 2.317,-3.966 4.284,-3.966 0.967,0 1.866,0.366 2.116,0.616 -0.1,0.434 -0.333,1.25 -0.616,1.784 l -0.25,0.1 c -0.134,-0.317 -0.351,-1 -0.533,-1.784 -0.101,-0.066 -0.301,-0.117 -0.634,-0.117 -1.85,0 -2.816,1.534 -2.816,3.167 0,1.85 1.166,3.167 2.967,3.167 0.133,0 0.35,-0.083 0.466,-0.133 0.584,-0.483 1.101,-0.816 1.384,-0.95 l 0.116,0.233 c -0.149,0.45 -0.767,1.2 -1.066,1.4 -0.25,0.1 -1.033,0.267 -1.566,0.267 -1.566,0 -3.851,-0.934 -3.851,-3.767 v -0.017 z"
       id="path115"
       inkscape:connector-curvature="0"
       style="fill:#202e50" /><path
       d="m 438.162,55.229 c 0.367,0 0.834,0.133 1.233,0.4 0.267,-0.184 0.584,-0.333 0.867,-0.434 l 0.133,0.117 c 0,0.3 -0.233,1.633 -0.399,2.017 l -0.233,0.1 c -0.184,-0.333 -0.417,-0.867 -0.584,-1.283 -0.1,-0.083 -0.399,-0.283 -0.983,-0.283 -0.833,0 -1.267,0.55 -1.267,1.15 0,0.4 0.15,0.65 0.601,0.917 0.517,0.283 1.434,0.667 2,0.95 0.916,0.45 1.267,1.066 1.267,1.767 0,1.817 -1.9,2.333 -2.934,2.333 -0.883,0 -1.833,-0.317 -2.417,-0.717 0,-0.317 0.284,-1.583 0.384,-1.817 l 0.233,-0.133 c 0.233,0.434 0.6,1.45 0.783,1.9 0.25,0.1 0.617,0.167 1.017,0.167 0.884,0 1.55,-0.533 1.55,-1.217 0,-0.45 -0.149,-0.75 -0.666,-1 -0.45,-0.25 -1,-0.5 -1.617,-0.8 -0.917,-0.417 -1.467,-1.034 -1.467,-1.967 0,-1.05 0.817,-2.167 2.483,-2.167 h 0.016 z"
       id="path117"
       inkscape:connector-curvature="0"
       style="fill:#202e50" /></g><text
     xml:space="preserve"
     style="font-size:18px;font-style:normal;font-weight:normal;line-height:125%;letter-spacing:0px;word-spacing:0px;fill:#000000;fill-opacity:1;stroke:none;font-family:Sans;-inkscape-font-specification:Sans"
     x="157.75063"
     y="59.298122"
     id="text3100"
     sodipodi:linespacing="125%"
     transform="translate(0,-1.0946758e-6)"><tspan
       sodipodi:role="line"
       id="tspan3102"
       x="157.75063"
       y="59.298122" /></text>
</svg>